<svg height='300px' width='300px'  fill="#000000" xmlns="http://www.w3.org/2000/svg" xmlns:xlink="http://www.w3.org/1999/xlink" version="1.1" x="0px" y="0px" viewBox="0 0 100 100" enable-background="new 0 0 100 100" xml:space="preserve"><g><path d="M83.717,71.465c-6.594,9.363-18.982,15.182-32.336,15.182h-0.004c-14.224-0.002-31.783-7.281-38.411-27.709   c-3.587-11.057-2.285-21.298,3.764-29.621c7.193-9.896,20.239-16.042,34.047-16.042c17.949,0,31.213,10.188,35.479,27.251   l0.027,0.104l0.086,0.268C90.532,52.518,89.615,63.087,83.717,71.465 M89.648,39.735l-0.019-0.064   c-2.293-9.158-7.075-16.744-13.836-21.94c-6.756-5.192-15.405-7.937-25.019-7.937c-14.901,0-29.026,6.697-36.861,17.477   C7.184,36.53,5.711,47.852,9.656,60.01c7.203,22.203,26.274,30.115,41.725,30.116h0.002c14.465,0,27.945-6.383,35.18-16.657   C93.139,64.127,94.206,52.463,89.648,39.735"></path><path d="M41.765,56.777c0.074,0.334,0.314,0.765,1.032,0.924c0.279,0.1,0.565,0.15,0.853,0.15c0.934,0,1.715-0.527,2.291-0.987   c0.268-0.214,0.533-0.431,0.798-0.646c2.044-1.671,3.973-3.241,6.64-3.118c0.044,0.002,0.09,0.006,0.135,0.017   c0.24,0.051,0.521,0.198,0.955,0.438l0.725,0.398l0.06,0.021c1.146,0.424,1.7,0.631,1.991,0.729   c0.055,0.022,0.117,0.043,0.189,0.063c0.055,0.016,0.09,0.022,0.117,0.026c0.121,0.026,0.268,0.054,0.443,0.086   c0.337,0.063,1.165,0.128,1.227,0.129h0.016c0.562,0,0.805-0.446,1.088-1.077c0.088-0.197,0.218-0.563,0.314-0.89   c0.182-0.616,0.235-0.992,0.021-1.334c-0.152-0.245-0.416-0.396-0.704-0.406c-0.132-0.004-0.835-0.038-1.193-0.063l-0.277-0.047   c-2.986-0.512-4.973-1.936-6.073-4.352c-1.14-2.503-1.173-5.79-1.097-8.044c0.016-0.481,0.013-0.771-0.01-1.003   c-0.091-0.945-0.732-1.281-1.304-1.281c-0.073,0-0.15,0.005-0.227,0.016c-1.167,0.16-1.4,1.194-1.646,2.29   c-0.063,0.277-0.036,0.679,0.06,1.907c0.186,2.41,0.681,8.814-0.984,10.087C41.867,54.891,41.591,55.996,41.765,56.777"></path><path d="M24.127,46.274c0.939,0,1.676-1.132,1.676-2.578c0-1.446-0.736-2.578-1.676-2.578s-1.676,1.132-1.676,2.578   C22.451,45.142,23.188,46.274,24.127,46.274"></path><path d="M21.208,55.545c-0.939,0-1.676,1.133-1.676,2.578s0.736,2.578,1.676,2.578s1.676-1.133,1.676-2.578   S22.147,55.545,21.208,55.545"></path><path d="M24.959,54.096c-0.316,0-0.601,0.098-0.822,0.279c-0.725,0.6-0.572,1.939,0.348,3.055c0.611,0.742,1.42,1.202,2.111,1.202   l0,0c0.316,0,0.601-0.097,0.822-0.278c0.725-0.6,0.571-1.94-0.348-3.056C26.459,54.557,25.65,54.096,24.959,54.096"></path><path d="M26.29,63.438c-0.611-0.742-1.42-1.203-2.111-1.203c-0.316,0-0.601,0.099-0.822,0.279   c-0.376,0.312-0.533,0.842-0.429,1.455c0.09,0.533,0.366,1.104,0.777,1.602c0.612,0.74,1.42,1.201,2.111,1.201l0,0   c0.316,0,0.601-0.098,0.822-0.279c0.376-0.311,0.533-0.842,0.429-1.454C26.977,64.503,26.701,63.936,26.29,63.438"></path><path d="M27.227,46.45c0.248,0.325,0.655,0.503,1.146,0.503l0,0c0.608,0,1.308-0.269,1.921-0.737   c1.148-0.877,1.602-2.149,1.031-2.896c-0.248-0.325-0.654-0.503-1.145-0.503c-0.608,0-1.308,0.269-1.921,0.736   c-0.513,0.392-0.911,0.883-1.12,1.382C26.898,45.511,26.931,46.063,27.227,46.45"></path><path d="M28.372,38.991c0.608,0,1.308-0.268,1.92-0.736c0.514-0.392,0.911-0.883,1.12-1.382c0.24-0.574,0.208-1.126-0.088-1.514   c-0.248-0.324-0.655-0.503-1.145-0.503c-0.608,0-1.308,0.268-1.921,0.736c-1.149,0.877-1.602,2.15-1.032,2.896   C27.475,38.812,27.881,38.991,28.372,38.991"></path><path d="M37.817,49.187c0.087,0.02,0.176,0.03,0.266,0.03l0,0c0.852,0,1.654-0.889,1.95-2.161c0.146-0.629,0.141-1.261-0.016-1.779   c-0.18-0.596-0.557-1.001-1.032-1.112c-0.087-0.02-0.177-0.03-0.267-0.03c-0.852,0-1.654,0.889-1.95,2.161   C36.441,47.703,36.901,48.973,37.817,49.187"></path><path d="M30.875,53.506c0.087,0.021,0.177,0.031,0.267,0.031l0,0c0.852,0,1.654-0.889,1.95-2.162   c0.328-1.408-0.133-2.677-1.048-2.891c-0.087-0.02-0.176-0.03-0.267-0.03c-0.852,0-1.654,0.889-1.95,2.161   c-0.146,0.629-0.141,1.262,0.016,1.779C30.023,52.99,30.399,53.396,30.875,53.506"></path><path d="M81.703,56.648c-0.574-0.351-1.197-0.541-1.754-0.541c-0.604,0-1.07,0.225-1.319,0.633   c-0.254,0.416-0.228,0.969,0.071,1.514c0.26,0.477,0.707,0.922,1.259,1.258c0.574,0.35,1.197,0.543,1.755,0.543   c0.602,0,1.07-0.226,1.318-0.634C83.521,58.619,82.938,57.4,81.703,56.648"></path><path d="M74.331,29.198c0.575,0.35,1.198,0.542,1.755,0.542l0,0c0.602,0,1.07-0.225,1.318-0.633c0.488-0.803-0.096-2.02-1.33-2.772   c-0.574-0.35-1.197-0.542-1.754-0.542c-0.604,0-1.07,0.225-1.319,0.633c-0.254,0.417-0.228,0.969,0.071,1.515   C73.332,28.416,73.779,28.862,74.331,29.198"></path><path d="M78.23,60.676c-0.191,0-0.388,0.014-0.582,0.043c-0.64,0.092-1.226,0.326-1.65,0.66c-0.49,0.385-0.73,0.882-0.662,1.365   c0.115,0.797,1.003,1.334,2.209,1.334h0.001c0.19,0,0.388-0.016,0.581-0.043c1.432-0.205,2.447-1.096,2.313-2.025   C80.325,61.212,79.438,60.676,78.23,60.676"></path><path d="M34.059,26.066L34.059,26.066c0.191,0,0.387-0.014,0.581-0.042c1.431-0.207,2.447-1.096,2.313-2.026   c-0.115-0.798-1.002-1.334-2.209-1.334c-0.191,0-0.386,0.014-0.581,0.042c-0.639,0.092-1.226,0.327-1.652,0.661   c-0.49,0.384-0.73,0.882-0.661,1.365C31.964,25.53,32.852,26.066,34.059,26.066"></path><path d="M40.672,27.73c0.041,0,0.082-0.002,0.123-0.006c0.485-0.051,0.908-0.407,1.161-0.977c0.219-0.495,0.303-1.121,0.234-1.764   c-0.144-1.365-0.924-2.394-1.814-2.394c-0.041,0-0.082,0.002-0.123,0.006c-0.486,0.051-0.909,0.407-1.161,0.977   c-0.219,0.495-0.303,1.121-0.235,1.764C39.002,26.702,39.782,27.73,40.672,27.73"></path><path d="M56.828,34.256c0.041,0,0.082-0.002,0.123-0.006c0.936-0.099,1.547-1.303,1.395-2.74c-0.15-1.428-0.998-2.489-1.938-2.388   c-0.934,0.099-1.547,1.303-1.395,2.74C55.158,33.227,55.938,34.256,56.828,34.256"></path><path d="M28.816,29.814c0.627,0.615,1.394,0.982,2.05,0.982c0.391,0,0.724-0.129,0.964-0.373c0.658-0.671,0.365-1.989-0.667-3.001   c-0.627-0.615-1.393-0.982-2.05-0.982c-0.391,0-0.724,0.129-0.963,0.374c-0.342,0.348-0.442,0.892-0.274,1.492   C28.021,28.826,28.355,29.362,28.816,29.814"></path><path d="M52.21,74.982c-0.94,0-1.676,1.134-1.676,2.578c0,1.446,0.735,2.578,1.676,2.578c0.938,0,1.675-1.132,1.675-2.578   C53.885,76.116,53.148,74.982,52.21,74.982"></path><path d="M36.621,59.736c-0.939,0-1.676,1.133-1.676,2.578c0,1.444,0.736,2.578,1.676,2.578s1.676-1.134,1.676-2.578   C38.297,60.869,37.561,59.736,36.621,59.736"></path><path d="M43.362,75.294c-0.316,0-0.601,0.097-0.822,0.279c-0.725,0.598-0.572,1.938,0.348,3.055   c0.611,0.741,1.42,1.202,2.111,1.202c0.316,0,0.601-0.098,0.823-0.279c0.725-0.599,0.571-1.941-0.349-3.056   C44.861,75.754,44.053,75.294,43.362,75.294"></path><path d="M59.096,37.388c-0.609,0-1.309,0.269-1.922,0.736c-0.514,0.392-0.91,0.883-1.119,1.382   c-0.24,0.574-0.209,1.126,0.088,1.514c0.248,0.324,0.654,0.503,1.146,0.503l0,0c0.608,0,1.31-0.268,1.922-0.736   c1.147-0.878,1.603-2.15,1.031-2.897C59.992,37.566,59.586,37.388,59.096,37.388"></path><path d="M60.354,67.264c-0.607,0-1.309,0.27-1.92,0.736c-1.148,0.877-1.604,2.15-1.033,2.896c0.248,0.324,0.656,0.502,1.146,0.502   l0,0c0.607,0,1.309-0.269,1.92-0.735c1.148-0.878,1.602-2.149,1.031-2.896C61.251,67.441,60.844,67.264,60.354,67.264"></path><path d="M65.133,62.285c-0.181-0.596-0.557-1.001-1.031-1.111c-0.088-0.021-0.178-0.031-0.268-0.031   c-0.852,0-1.654,0.89-1.95,2.162c-0.327,1.408,0.134,2.678,1.048,2.891c0.088,0.021,0.176,0.031,0.268,0.031l0,0   c0.852,0,1.652-0.89,1.949-2.162C65.295,63.436,65.289,62.803,65.133,62.285"></path><path d="M57.264,73.705c-0.086-0.021-0.176-0.031-0.266-0.031c-0.852,0-1.654,0.889-1.95,2.162   c-0.146,0.629-0.141,1.262,0.017,1.779c0.181,0.596,0.557,1.001,1.031,1.111c0.086,0.02,0.176,0.029,0.268,0.029   c0.852,0,1.652-0.889,1.949-2.16C58.641,75.188,58.18,73.918,57.264,73.705"></path><path d="M78.109,49.002c-0.254,0.417-0.229,0.969,0.072,1.516c0.26,0.476,0.707,0.92,1.258,1.256   c0.574,0.351,1.197,0.543,1.754,0.543c0.604,0,1.072-0.225,1.32-0.633c0.487-0.803-0.097-2.021-1.33-2.771   c-0.574-0.349-1.197-0.542-1.756-0.542C78.826,48.369,78.357,48.594,78.109,49.002"></path><path d="M74.588,33.965c-0.488,0.802,0.096,2.02,1.33,2.772c0.574,0.35,1.197,0.542,1.754,0.542c0.604,0,1.071-0.225,1.32-0.633   c0.488-0.803-0.096-2.021-1.331-2.772c-0.574-0.35-1.197-0.542-1.754-0.542C75.305,33.333,74.836,33.558,74.588,33.965"></path><path d="M67.271,70.195c-0.19,0-0.387,0.014-0.58,0.041c-0.641,0.093-1.228,0.326-1.652,0.662c-0.49,0.384-0.73,0.881-0.661,1.363   c0.114,0.799,1.003,1.334,2.209,1.334h0.001c0.189,0,0.387-0.015,0.58-0.041c1.432-0.207,2.447-1.097,2.313-2.025   C69.367,70.73,68.479,70.195,67.271,70.195"></path><path d="M77.757,42.322c-0.935,0.099-1.547,1.302-1.396,2.74c0.145,1.365,0.925,2.394,1.813,2.394l0,0   c0.041,0,0.082-0.002,0.123-0.006c0.486-0.051,0.908-0.407,1.161-0.976c0.221-0.495,0.303-1.122,0.234-1.764   C79.543,43.282,78.693,42.222,77.757,42.322"></path><path d="M35.235,69.326c-0.041,0-0.082,0.002-0.123,0.006c-0.485,0.051-0.908,0.406-1.161,0.977   c-0.219,0.494-0.303,1.121-0.235,1.765c0.145,1.364,0.924,2.394,1.815,2.394l0,0c0.041,0,0.082-0.002,0.123-0.007   c0.935-0.099,1.548-1.303,1.396-2.74C36.905,70.354,36.125,69.326,35.235,69.326"></path><path d="M63.552,46.764L63.552,46.764c0.392,0,0.726-0.129,0.964-0.374c0.658-0.67,0.365-1.989-0.666-3.001   c-0.629-0.615-1.395-0.982-2.051-0.982c-0.392,0-0.725,0.129-0.965,0.374c-0.657,0.671-0.363,1.989,0.668,3.001   C62.129,46.396,62.895,46.764,63.552,46.764"></path><path d="M72.92,60.482c-0.197-0.616-0.887-1-1.797-1c-0.377,0-0.781,0.065-1.17,0.19c-1.376,0.441-2.229,1.488-1.941,2.384   c0.197,0.615,0.885,1,1.797,1l0,0c0.377,0,0.78-0.066,1.168-0.191C72.354,62.424,73.207,61.377,72.92,60.482"></path><path d="M24.385,34.879c0.197,0.126,0.423,0.19,0.672,0.19l0,0c0.728,0,1.564-0.571,2.131-1.455   c0.781-1.216,0.773-2.567-0.017-3.075c-0.197-0.126-0.423-0.19-0.672-0.19c-0.728,0-1.564,0.571-2.131,1.455   c-0.349,0.543-0.556,1.141-0.582,1.681C23.756,34.107,23.975,34.615,24.385,34.879"></path><path d="M73.545,64.286c-0.197-0.126-0.424-0.19-0.672-0.19c-0.729,0-1.564,0.57-2.132,1.455c-0.78,1.217-0.772,2.566,0.018,3.074   c0.196,0.127,0.423,0.189,0.673,0.189l0,0c0.728,0,1.563-0.57,2.131-1.455c0.349-0.543,0.556-1.141,0.582-1.68   C74.174,65.059,73.955,64.55,73.545,64.286"></path><path d="M22.822,47.391c-0.596-0.415-1.273-0.653-1.857-0.653c-0.535,0-0.966,0.197-1.216,0.555   c-0.279,0.4-0.287,0.953-0.021,1.517c0.23,0.49,0.649,0.962,1.18,1.331c0.596,0.416,1.273,0.653,1.857,0.653l0,0   c0.535,0,0.966-0.196,1.215-0.555c0.279-0.401,0.287-0.954,0.021-1.517C23.771,48.232,23.352,47.759,22.822,47.391"></path><path d="M41.987,67.803c0.534,0,0.966-0.197,1.216-0.555c0.537-0.771,0.027-2.021-1.159-2.85c-0.596-0.414-1.273-0.652-1.857-0.652   c-0.535,0-0.967,0.197-1.216,0.556c-0.537,0.771-0.028,2.022,1.158,2.849C40.725,67.564,41.402,67.803,41.987,67.803L41.987,67.803   z"></path><path d="M46.307,20.933L46.307,20.933c0.112,0,0.226-0.005,0.338-0.014c1.44-0.118,2.509-0.944,2.433-1.881   c-0.07-0.854-1.065-1.474-2.368-1.474c-0.112,0-0.226,0.004-0.338,0.014c-1.441,0.118-2.51,0.944-2.433,1.88   C44.01,20.313,45.005,20.933,46.307,20.933"></path><path d="M57.518,62.742c-0.11,0-0.225,0.006-0.338,0.015c-0.644,0.054-1.244,0.251-1.688,0.558   c-0.513,0.354-0.783,0.836-0.744,1.322c0.069,0.854,1.065,1.475,2.368,1.475l0,0c0.111,0,0.226-0.006,0.339-0.014   c1.44-0.119,2.51-0.943,2.433-1.881C59.816,63.363,58.82,62.742,57.518,62.742"></path><path d="M42.103,73.699c0.848,0,1.653-0.883,1.958-2.146c0.151-0.628,0.15-1.26-0.002-1.779c-0.176-0.598-0.548-1.006-1.023-1.119   c-0.09-0.021-0.183-0.032-0.275-0.032c-0.848,0-1.653,0.883-1.958,2.146c-0.339,1.404,0.111,2.678,1.025,2.898   C41.917,73.688,42.01,73.699,42.103,73.699L42.103,73.699z"></path><path d="M31.425,61.385c-0.09-0.021-0.183-0.031-0.276-0.031c-0.848,0-1.653,0.881-1.958,2.146   c-0.339,1.405,0.111,2.681,1.025,2.899c0.09,0.021,0.182,0.031,0.275,0.031l0,0c0.848,0,1.653-0.882,1.958-2.146   c0.151-0.628,0.151-1.261-0.001-1.779C32.272,61.908,31.9,61.5,31.425,61.385"></path><path d="M46.823,68.924c-0.188,0-0.367,0.041-0.53,0.12c-0.845,0.411-1.011,1.752-0.378,3.052c0.496,1.021,1.342,1.703,2.105,1.703   l0,0c0.188,0,0.367-0.039,0.53-0.119c0.845-0.412,1.011-1.752,0.378-3.051C48.432,69.609,47.586,68.924,46.823,68.924"></path><path d="M17.824,49.848c-0.107-0.031-0.219-0.047-0.332-0.047c-0.825,0-1.647,0.844-2,2.051c-0.405,1.39-0.016,2.683,0.886,2.945   c0.107,0.031,0.218,0.047,0.331,0.047l0,0c0.825,0,1.647-0.844,2-2.053C19.115,51.404,18.726,50.111,17.824,49.848"></path><path d="M55.773,68.031c-0.229-0.522-0.801-0.822-1.567-0.822c-0.472,0-0.978,0.115-1.468,0.33   c-1.321,0.584-2.062,1.715-1.682,2.574c0.23,0.521,0.803,0.822,1.568,0.822l0,0c0.471,0,0.979-0.115,1.467-0.33   C55.415,70.021,56.154,68.891,55.773,68.031"></path><path d="M19.761,40.767L19.761,40.767c0.471,0,0.978-0.114,1.467-0.33c1.323-0.583,2.061-1.714,1.682-2.574   c-0.23-0.522-0.802-0.822-1.568-0.822c-0.471,0-0.978,0.114-1.467,0.33c-1.323,0.583-2.062,1.714-1.682,2.574   C18.423,40.467,18.995,40.767,19.761,40.767"></path><path d="M35.642,57.311c0.29-0.578,0.432-1.192,0.401-1.733c-0.035-0.621-0.306-1.104-0.742-1.322   c-0.167-0.084-0.35-0.126-0.544-0.126c-0.758,0-1.606,0.676-2.11,1.68c-0.29,0.575-0.433,1.191-0.402,1.731   c0.036,0.622,0.306,1.104,0.743,1.321c0.167,0.084,0.35,0.128,0.544,0.128l0,0C34.291,58.988,35.138,58.313,35.642,57.311"></path><path d="M72.539,37.228c-1.445,0.003-2.575,0.743-2.572,1.683c0.002,0.936,1.131,1.668,2.57,1.668h0.012   c0.646-0.001,1.26-0.152,1.729-0.423c0.539-0.313,0.847-0.771,0.846-1.259C75.12,37.961,73.99,37.228,72.539,37.228"></path><path d="M73.088,44.435c-0.375,0-0.779,0.065-1.168,0.19c-0.615,0.197-1.154,0.526-1.52,0.927c-0.418,0.46-0.572,0.991-0.424,1.456   c0.196,0.616,0.887,0.999,1.797,0.999l0,0c0.377,0,0.781-0.066,1.17-0.19c1.377-0.441,2.229-1.488,1.942-2.383   C74.688,44.817,74,44.435,73.088,44.435"></path><path d="M40.954,35.919c0.781-1.216,0.773-2.567-0.018-3.075c-0.197-0.126-0.422-0.19-0.671-0.19c-0.728,0-1.564,0.571-2.131,1.455   c-0.349,0.543-0.555,1.141-0.582,1.681c-0.03,0.622,0.188,1.13,0.599,1.394c0.197,0.126,0.423,0.19,0.672,0.19l0,0   C39.55,37.374,40.386,36.803,40.954,35.919"></path><path d="M66.15,25.875c0.295,0,0.563-0.087,0.776-0.251c0.388-0.297,0.563-0.822,0.479-1.439c-0.071-0.536-0.327-1.114-0.723-1.626   c-0.604-0.787-1.416-1.275-2.121-1.275c-0.295,0-0.563,0.087-0.776,0.251c-0.746,0.573-0.64,1.919,0.241,3.065   C64.633,25.387,65.445,25.875,66.15,25.875"></path><path d="M65.088,33.982c0.294,0,0.563-0.087,0.777-0.251c0.387-0.297,0.562-0.822,0.479-1.439c-0.07-0.536-0.326-1.114-0.721-1.626   c-0.604-0.787-1.417-1.275-2.121-1.275c-0.295,0-0.564,0.087-0.777,0.251c-0.388,0.297-0.563,0.822-0.479,1.439   c0.071,0.537,0.328,1.114,0.722,1.626C63.57,33.493,64.383,33.982,65.088,33.982"></path><path d="M66.965,28.475c-0.109,0.476,0.09,0.991,0.547,1.415c0.396,0.368,0.961,0.651,1.592,0.795   c0.297,0.069,0.597,0.104,0.889,0.104l0,0c1.053,0,1.837-0.455,1.999-1.159c0.108-0.476-0.091-0.992-0.546-1.416   c-0.396-0.368-0.963-0.651-1.592-0.795c-0.299-0.068-0.598-0.104-0.889-0.104C67.912,27.315,67.127,27.771,66.965,28.475"></path><path d="M71.699,36.174L71.699,36.174c1.053,0,1.838-0.455,2-1.159c0.21-0.916-0.729-1.887-2.139-2.211   c-0.297-0.068-0.598-0.103-0.889-0.103c-1.053,0-1.837,0.455-1.999,1.159c-0.211,0.916,0.729,1.887,2.138,2.211   C71.109,36.139,71.408,36.174,71.699,36.174"></path><path d="M60.818,29.48c0.188,0.114,0.404,0.172,0.639,0.172c0.738,0,1.574-0.593,2.129-1.511c0.335-0.553,0.525-1.155,0.537-1.696   c0.014-0.623-0.219-1.125-0.637-1.377c-0.188-0.114-0.404-0.172-0.639-0.172c-0.738,0-1.574,0.593-2.13,1.511   C59.971,27.644,60.014,28.994,60.818,29.48"></path><path d="M65.311,42.465L65.311,42.465c0.849,0,1.652-0.882,1.957-2.146c0.152-0.628,0.151-1.26-0.002-1.779   c-0.176-0.598-0.548-1.006-1.021-1.12c-0.09-0.021-0.184-0.033-0.276-0.033c-0.848,0-1.651,0.883-1.957,2.146   c-0.339,1.406,0.111,2.679,1.025,2.899C65.125,42.454,65.217,42.465,65.311,42.465"></path><path d="M78.379,53.268c-0.23-0.521-0.803-0.822-1.568-0.822c-0.471,0-0.979,0.115-1.467,0.33   c-0.592,0.262-1.093,0.646-1.412,1.082c-0.369,0.502-0.467,1.045-0.27,1.492c0.23,0.521,0.802,0.822,1.568,0.822l0,0   c0.471,0,0.977-0.115,1.467-0.33C78.02,55.258,78.758,54.127,78.379,53.268"></path><path d="M56.766,28.31c0.666,0,1.438-0.384,2.065-1.028c0.451-0.463,0.772-1.006,0.907-1.53c0.154-0.603,0.043-1.145-0.307-1.485   c-0.236-0.23-0.56-0.352-0.935-0.352c-0.666,0-1.438,0.384-2.065,1.028c-0.451,0.462-0.773,1.005-0.908,1.53   c-0.153,0.604-0.041,1.145,0.309,1.485C56.068,28.188,56.391,28.31,56.766,28.31"></path><path d="M35.844,31.874c-0.942-0.078-1.763,0.996-1.88,2.434c-0.052,0.644,0.046,1.268,0.277,1.757   c0.266,0.563,0.697,0.909,1.184,0.948c0.032,0.002,0.063,0.004,0.095,0.004l0,0c0.904,0,1.671-1.048,1.784-2.438   C37.422,33.139,36.78,31.95,35.844,31.874"></path><path d="M57.887,20.04c0.17,0,0.344-0.011,0.516-0.033c1.435-0.182,2.466-1.054,2.347-1.987c-0.103-0.807-1.028-1.371-2.252-1.371   c-0.17,0-0.345,0.011-0.517,0.033c-0.641,0.081-1.229,0.306-1.662,0.633c-0.495,0.375-0.745,0.869-0.685,1.354   C55.736,19.476,56.662,20.04,57.887,20.04"></path><path d="M34.698,29.765c0.249,0.388,0.703,0.602,1.278,0.602c0.571,0,1.21-0.208,1.797-0.585c1.216-0.781,1.771-2.013,1.264-2.803   c-0.249-0.388-0.703-0.602-1.278-0.602c-0.572,0-1.21,0.208-1.797,0.585C34.745,27.743,34.19,28.975,34.698,29.765"></path><path d="M30.776,68.191c-0.116-0.037-0.238-0.058-0.361-0.058c-0.813,0-1.644,0.822-2.021,2c-0.197,0.615-0.243,1.246-0.128,1.775   c0.131,0.606,0.473,1.043,0.938,1.19c0.116,0.037,0.237,0.057,0.361,0.057l0,0c0.813,0,1.644-0.822,2.021-2   c0.197-0.615,0.243-1.245,0.129-1.774C31.583,68.773,31.241,68.34,30.776,68.191"></path><path d="M47.191,23.018c-0.514,0-0.934,0.188-1.183,0.531c-0.552,0.761-0.068,2.021,1.101,2.871c0.604,0.439,1.292,0.69,1.888,0.69   c0.514,0,0.935-0.188,1.183-0.531c0.552-0.76,0.068-2.021-1.101-2.871C48.475,23.27,47.787,23.018,47.191,23.018"></path><path d="M50.943,21.754c0.615,0.71,1.42,1.15,2.101,1.15l0,0c0.333,0,0.628-0.104,0.854-0.299c0.369-0.32,0.513-0.854,0.395-1.465   c-0.104-0.531-0.393-1.093-0.814-1.581c-0.615-0.71-1.42-1.151-2.103-1.151c-0.332,0-0.627,0.104-0.854,0.299   c-0.369,0.32-0.512,0.854-0.394,1.465C50.23,20.704,50.521,21.266,50.943,21.754"></path></g></svg>