<svg height='300px' width='300px'  fill="#000000" xmlns="http://www.w3.org/2000/svg" viewBox="0 0 100 100" x="0px" y="0px"><defs><style>.cls-1{fill:none;}</style></defs><title>Risorsa 223</title><g data-name="Livello 2"><g><rect class="cls-1" width="100" height="100"></rect><path d="M59.64,91.5h-27A12.18,12.18,0,0,1,20.48,79.33V25.19a2.39,2.39,0,0,1,2.39-2.39H69.42a2.39,2.39,0,0,1,2.39,2.39V79.33A12.18,12.18,0,0,1,59.64,91.5ZM23.48,25.81V79.33a9.18,9.18,0,0,0,9.17,9.17h27a9.18,9.18,0,0,0,9.17-9.17V25.81Zm45.94,0h0Z"></path><path d="M70.31,38.71H22a1.5,1.5,0,0,1,0-3H70.31a1.5,1.5,0,0,1,0,3Z"></path><path d="M32.64,80.83a1.5,1.5,0,0,1-1.5-1.5V60.74a1.5,1.5,0,1,1,3,0V79.33A1.5,1.5,0,0,1,32.64,80.83Z"></path><path d="M32.64,56.11a1.5,1.5,0,0,1-1.5-1.5V49.45a1.5,1.5,0,1,1,3,0v5.15A1.5,1.5,0,0,1,32.64,56.11Z"></path><path d="M46,80.83a1.5,1.5,0,0,1-1.5-1.5V49.45a1.5,1.5,0,0,1,3,0V79.33A1.5,1.5,0,0,1,46,80.83Z"></path><path d="M59.64,80.83a1.5,1.5,0,0,1-1.5-1.5v-6a1.5,1.5,0,0,1,3,0v6A1.5,1.5,0,0,1,59.64,80.83Z"></path><path d="M59.64,68.66a1.5,1.5,0,0,1-1.5-1.5V49.45a1.5,1.5,0,0,1,3,0V67.16A1.5,1.5,0,0,1,59.64,68.66Z"></path><path d="M75,78.33H68.81V36.06H75a12.51,12.51,0,0,1,12.5,12.5V65.83A12.51,12.51,0,0,1,75,78.33Zm-3.22-3H75a9.51,9.51,0,0,0,9.5-9.5V48.56a9.51,9.51,0,0,0-9.5-9.5H71.81Z"></path><path d="M75.08,70.78H68.81V43.61h6.28a5.11,5.11,0,0,1,5.1,5.1v17A5.11,5.11,0,0,1,75.08,70.78Zm-3.28-3h3.28a2.1,2.1,0,0,0,2.1-2.1v-17a2.1,2.1,0,0,0-2.1-2.1H71.81Z"></path><path d="M65.77,25.81a1.5,1.5,0,0,1-1.5-1.5V22.07A4.87,4.87,0,0,0,56.74,18a1.57,1.57,0,0,1-2.17-.44A6.09,6.09,0,0,0,45.7,16l-.55.43-.74-.13a1.57,1.57,0,0,1-1-.79,7.72,7.72,0,0,0-14.5,3.71c0,.07,0,.13,0,.2l.05,1.11-.8.45a3.19,3.19,0,0,0-1.62,2.77,1.5,1.5,0,1,1-3,0,6.2,6.2,0,0,1,2.36-4.86,10.72,10.72,0,0,1,19.3-6.11,9.1,9.1,0,0,1,11.13,2.05,7.87,7.87,0,0,1,11,7.23v2.23A1.5,1.5,0,0,1,65.77,25.81ZM55.11,15.47h0Z"></path></g></g></svg>