<svg height='300px' width='300px'  fill="#000000" xmlns="http://www.w3.org/2000/svg" viewBox="0 0 1000 1000" version="1.1" x="0px" y="0px"><g><path fill="#000000" opacity="1.00" d=" M 764.01 45.99 C 783.38 37.31 805.15 35.15 826.12 37.31 C 844.21 39.30 862.19 44.52 877.64 54.34 C 892.88 64.03 906.27 76.88 915.70 92.35 C 924.76 106.89 929.86 123.86 930.16 141.00 C 931.52 178.71 919.50 215.50 902.93 248.93 C 887.65 280.30 867.46 308.89 846.98 337.02 C 813.24 382.75 777.76 427.19 740.89 470.43 C 789.32 512.01 826.00 567.44 844.24 628.70 C 851.58 653.19 856.04 678.56 857.38 704.11 C 857.37 705.88 857.97 707.57 859.01 709.01 C 873.96 731.24 883.17 757.34 885.15 784.08 C 888.15 821.87 876.41 860.48 853.23 890.44 C 824.87 927.79 779.72 951.56 733.03 954.72 C 722.38 953.57 711.65 954.11 700.96 954.00 C 568.97 954.00 436.99 954.00 305.00 954.00 C 299.63 953.84 294.23 954.37 288.89 953.71 C 282.04 952.02 274.92 952.28 268.00 951.03 C 236.55 945.82 206.60 931.54 182.93 910.15 C 159.77 889.47 142.84 861.86 135.22 831.72 C 125.33 793.61 131.00 751.76 150.59 717.61 C 152.37 714.16 155.44 711.11 155.73 707.07 C 157.54 667.89 166.36 628.99 182.05 593.03 C 200.24 550.32 227.81 511.71 261.71 480.07 C 231.65 445.05 202.76 409.05 174.74 372.38 C 154.09 345.06 133.62 317.52 115.69 288.31 C 97.11 257.07 81.23 223.54 74.64 187.55 C 71.70 170.63 70.62 153.22 73.12 136.17 C 77.54 108.88 94.61 84.86 116.59 68.65 C 137.21 52.97 163.34 45.85 189.00 45.59 C 206.99 45.20 225.20 48.64 241.41 56.58 C 255.36 63.26 268.73 71.37 280.29 81.70 C 294.81 94.37 306.63 109.81 317.05 125.94 C 337.15 157.24 351.78 191.59 366.28 225.72 C 389.04 280.69 410.27 336.31 429.06 392.76 C 449.13 388.59 469.50 385.79 489.99 384.98 C 517.06 383.42 544.19 385.80 570.91 390.12 C 584.02 349.39 599.05 309.30 614.48 269.40 C 628.70 233.24 643.26 197.17 660.02 162.09 C 667.72 145.91 676.39 130.17 686.13 115.12 C 696.40 99.45 708.06 84.49 722.28 72.19 C 734.66 61.27 749.04 52.84 764.01 45.99 M 775.63 73.64 C 764.82 78.68 754.31 84.57 745.08 92.18 C 732.32 102.50 721.96 115.45 712.88 129.03 C 703.44 143.31 695.10 158.31 687.68 173.73 C 670.98 208.58 656.51 244.43 642.38 280.38 C 627.47 318.83 613.05 357.49 600.26 396.70 C 616.75 400.97 632.80 406.75 648.54 413.24 C 657.27 398.09 666.12 383.01 674.79 367.82 C 676.30 365.07 678.40 362.56 681.24 361.11 C 687.57 357.55 696.33 359.47 700.50 365.45 C 704.09 370.24 704.29 377.14 701.14 382.20 C 692.69 396.86 684.18 411.49 675.73 426.15 C 690.16 433.71 703.97 442.47 717.33 451.79 C 739.05 426.56 760.07 400.72 780.67 374.57 C 802.42 346.87 823.79 318.83 843.76 289.81 C 863.85 260.66 881.66 229.47 892.35 195.57 C 898.12 177.00 901.32 157.44 899.99 137.97 C 898.75 118.39 887.67 100.53 872.93 88.07 C 862.22 78.59 849.04 72.01 835.03 69.10 C 815.41 64.92 794.15 65.29 775.63 73.64 M 140.01 88.92 C 125.01 98.49 112.29 112.30 105.91 129.07 C 100.99 141.77 101.24 155.72 102.35 169.08 C 105.23 199.19 116.83 227.67 130.83 254.20 C 148.14 286.73 170.30 316.30 192.22 345.80 C 221.84 384.96 252.50 423.34 284.51 460.56 C 298.34 449.61 313.06 439.80 328.46 431.18 C 321.74 419.07 314.90 407.02 308.13 394.93 C 305.21 390.01 305.48 383.44 308.83 378.79 C 312.90 372.78 321.57 370.58 327.97 374.08 C 332.49 376.20 334.70 380.90 336.97 385.05 C 343.02 395.83 349.06 406.61 355.13 417.37 C 369.80 410.98 384.77 405.26 400.02 400.44 C 381.77 345.80 361.20 291.94 339.22 238.70 C 325.38 206.19 311.66 173.39 292.66 143.47 C 282.60 127.66 271.04 112.47 256.33 100.70 C 247.42 93.46 237.35 87.81 227.00 82.94 C 214.56 77.09 200.60 75.09 186.95 75.57 C 170.58 76.25 153.94 80.03 140.01 88.92 M 487.17 415.16 C 452.55 416.98 418.24 424.47 385.96 437.11 C 375.75 441.19 365.29 444.95 356.00 450.94 C 347.52 454.32 339.84 459.32 331.95 463.86 C 310.05 477.32 290.12 493.81 271.91 511.92 C 246.04 538.62 224.57 569.80 209.95 604.04 C 194.72 638.65 186.50 676.27 185.46 714.04 C 185.55 718.70 182.79 722.62 180.37 726.36 C 160.62 756.49 154.92 795.64 165.99 830.00 C 175.11 861.36 197.57 888.02 225.60 904.39 C 242.85 914.14 262.01 920.99 281.86 922.45 C 285.27 922.61 288.52 923.83 291.93 924.03 C 435.93 924.06 579.93 924.03 723.93 924.05 C 728.27 924.14 732.62 924.67 736.95 924.11 C 762.21 921.46 786.56 911.21 806.47 895.51 C 833.41 874.38 851.80 842.25 854.96 808.02 C 857.95 780.48 850.87 752.18 836.14 728.81 C 834.25 725.79 831.02 723.85 829.42 720.64 C 827.81 717.68 827.79 714.24 827.69 710.97 C 826.01 661.92 811.58 613.46 786.69 571.19 C 778.90 558.84 771.16 546.41 761.82 535.15 C 738.86 506.43 710.92 481.63 679.34 462.76 C 645.58 441.78 607.67 427.80 568.71 420.21 C 541.82 415.58 514.43 413.20 487.17 415.16 Z"></path><path fill="#000000" opacity="1.00" d=" M 411.51 656.48 C 416.32 655.63 421.35 656.55 425.92 658.10 C 434.17 662.20 439.82 670.90 440.57 680.05 C 440.58 686.02 439.24 692.45 434.85 696.81 C 428.39 704.23 417.38 707.59 408.02 704.15 C 396.86 700.84 389.31 688.57 391.44 677.12 C 392.80 670.96 395.71 664.73 400.99 661.01 C 404.18 658.87 407.79 657.39 411.51 656.48 Z"></path><path fill="#000000" opacity="1.00" d=" M 582.37 659.54 C 590.65 657.04 600.09 659.83 606.26 665.73 C 610.65 670.77 613.81 677.35 613.59 684.15 C 612.80 691.00 610.10 698.00 604.52 702.36 C 600.50 706.60 594.49 707.59 588.96 708.16 C 581.35 708.28 574.26 704.28 568.92 699.13 C 564.87 693.73 563.58 686.50 564.20 679.88 C 565.13 670.12 573.11 661.98 582.37 659.54 Z"></path><path fill="#000000" opacity="1.00" d=" M 610.37 722.57 C 613.14 721.62 616.12 721.82 619.01 721.82 C 626.67 721.93 634.35 721.74 642.02 721.88 C 649.89 721.86 656.84 729.12 656.45 737.00 C 656.64 744.74 649.79 751.74 642.06 751.77 C 633.35 751.84 624.63 751.80 615.93 751.78 C 610.57 751.97 605.19 749.25 602.44 744.62 C 597.33 736.89 601.51 725.29 610.37 722.57 Z"></path><path fill="#000000" opacity="1.00" d=" M 362.17 724.26 C 372.47 724.02 382.79 724.21 393.10 724.17 C 401.09 723.89 408.30 731.04 408.12 739.02 C 408.40 746.74 401.72 753.90 393.98 754.06 C 383.98 754.20 373.97 754.09 363.96 754.11 C 358.27 754.26 352.72 750.82 350.32 745.67 C 345.59 736.89 352.22 724.90 362.17 724.26 Z"></path><path fill="#000000" opacity="1.00" d=" M 545.28 752.32 C 549.01 743.90 560.94 741.14 568.01 747.04 C 573.00 750.59 573.53 757.05 575.66 762.31 C 578.85 770.98 584.88 778.31 591.77 784.34 C 596.34 788.41 603.07 790.50 605.44 796.63 C 608.70 803.76 605.20 812.99 598.01 816.14 C 592.99 818.58 586.87 817.67 582.40 814.47 C 576.31 810.56 570.54 806.10 565.54 800.86 C 552.86 813.29 536.49 821.91 518.99 825.03 C 500.31 828.29 480.49 826.00 463.40 817.62 C 454.29 813.26 446.17 807.07 438.89 800.13 C 435.11 796.16 430.59 791.94 430.22 786.11 C 429.43 779.35 433.90 772.52 440.36 770.46 C 446.13 768.45 452.95 770.42 456.74 775.22 C 467.41 787.87 483.37 795.94 499.99 796.38 C 518.31 797.46 536.94 789.39 548.43 775.04 C 546.03 767.86 541.53 759.84 545.28 752.32 Z"></path></g></svg>