<svg height='300px' width='300px'  fill="#000000" xmlns="http://www.w3.org/2000/svg" xmlns:xlink="http://www.w3.org/1999/xlink" version="1.1" x="0px" y="0px" viewBox="0 0 64 64" enable-background="new 0 0 64 64" xml:space="preserve"><g><path d="M41.99,43.007c2.757,0,5-2.243,5-5s-2.243-5-5-5s-5,2.243-5,5S39.233,43.007,41.99,43.007z M41.99,35.007   c1.654,0,3,1.346,3,3s-1.346,3-3,3s-3-1.346-3-3S40.335,35.007,41.99,35.007z"></path><path d="M27.99,44.007c2.206,0,4-1.794,4-4c0-0.553-0.448-1-1-1s-1,0.447-1,1c0,1.103-0.897,2-2,2s-2-0.897-2-2s0.897-2,2-2   c0.552,0,1-0.447,1-1s-0.448-1-1-1c-2.206,0-4,1.794-4,4S25.784,44.007,27.99,44.007z"></path><path d="M50.966,29.555c-0.25-8.893-7.753-15.548-17.672-15.548c-0.258,0-0.506,0.1-0.692,0.278L17.298,28.952l0.002,0.003   c-0.19,0.182-0.311,0.435-0.311,0.719v5.333c0,0.553,0.448,1,1,1c1.103,0,2,0.897,2,2s-0.897,2-2,2c-0.552,0-1,0.447-1,1v10   c0,0.553,0.448,1,1,1h9c0.552,0,1-0.447,1-1c0-1.654,1.346-3,3-3s3,1.346,3,3c0,0.553,0.448,1,1,1h15c0.552,0,1-0.447,1-1V29.674   C50.99,29.632,50.971,29.596,50.966,29.555z M33.691,16.011c8.247,0.166,14.533,5.471,15.229,12.663H20.478L33.691,16.011z    M48.99,50.007H35.889c-0.464-2.279-2.485-4-4.899-4s-4.435,1.721-4.899,4H18.99V41.88c1.723-0.444,3-2.013,3-3.873   s-1.277-3.429-3-3.873v-3.46h30V50.007z"></path></g></svg>