<svg height='300px' width='300px'  fill="#000000" xmlns="http://www.w3.org/2000/svg" xmlns:xlink="http://www.w3.org/1999/xlink" version="1.1" x="0px" y="0px" viewBox="0 0 91 91" enable-background="new 0 0 91 91" xml:space="preserve"><g><path d="M32.648,17.734c1.068,0,1.938-0.868,1.938-1.934s-0.869-1.935-1.938-1.935c-1.066,0-1.934,0.868-1.934,1.935   S31.582,17.734,32.648,17.734z"></path><circle cx="56.956" cy="15.8" r="1.934"></circle><path d="M88.841,59.168h-5.625l0.025-2.004c4.385-4.43,1.771-10.875,1.654-11.157c-0.033-0.081-0.072-0.158-0.119-0.231   l-5.002-8.172c-0.309-2.847-1.936-7.396-6.178-9.391c4.324-4.164,6.082-10.48,4.287-16.417C75.286,3.214,66.187-1.657,57.608,0.945   c-4.158,1.26-7.574,4.062-9.625,7.892c-2.049,3.828-2.482,8.224-1.223,12.378c1.613,5.324,5.822,9.393,11.057,10.909   c-1.051,1.709-1.918,3.212-2.703,4.574C52.062,42,50.626,44.475,44.826,47.65c-6.1-3.803-7.424-6.047-10.51-11.313   c-0.736-1.253-1.549-2.635-2.523-4.215c5.232-1.516,9.441-5.583,11.055-10.907c1.26-4.154,0.824-8.551-1.227-12.38   c-2.049-3.828-5.467-6.629-9.625-7.89C23.412-1.653,14.32,3.216,11.722,11.796c-1.803,5.964-0.02,12.308,4.346,16.47   c-2.936,1.626-4.736,4.694-4.865,4.925L4.71,46.007c-0.119,0.284-2.727,6.722,1.652,11.151l0.008,2.01H2.16   c-0.928,0-1.68,0.752-1.68,1.68V79.73c0,0.928,0.752,1.68,1.68,1.68h4.297l0.02,4.576c0,0.168,0.025,0.332,0.074,0.492   c0.467,1.5,2.352,4.336,6.148,4.34h0.008c2.045,0,3.625-0.568,4.697-1.686c1.318-1.379,1.285-3.043,1.277-3.109   c0.029-1.143,0.084-2.77,0.158-4.613h10.279c0.93,0,1.68-0.752,1.68-1.68V60.848c0-0.928-0.75-1.68-1.68-1.68h-2.857   c-0.652-0.979-1.729-4.473-1.771-8.504c0.566-1.803,1.074-3.396,1.457-4.597c1.439,1.833,2.598,3.165,3.613,4.173   c1.803,1.789,4.461,3.82,11.615,6.551c0.605,0.311,3.293,0.957,4.798,0.951c5.809-0.02,11.631-5.082,14.072-7.502   c1.344-1.33,2.416-2.547,3.229-3.537c0.727,2.779,1.566,5.967,2.227,8.406v4.059h-5.305c-0.93,0-1.682,0.752-1.682,1.68V79.73   c0,0.928,0.752,1.68,1.682,1.68h10.66l0.057,3.674c-0.008,0.24-0.029,2.414,1.564,4.059c0.74,0.766,2.111,1.676,4.43,1.676   c2.113,0,3.752-0.572,4.869-1.703c1.336-1.354,1.357-2.975,1.355-3.125l0.025-4.58h5.684c0.928,0,1.68-0.752,1.68-1.68V60.848   C90.521,59.92,89.769,59.168,88.841,59.168z M3.841,78.051V62.529h2.543l0.061,15.521H3.841z M27.439,62.529v15.521H18.99   c0.264-5.354,0.678-11.311,1.23-13.344c0.164-0.602,0.377-1.35,0.621-2.178H27.439z M21.847,59.168   c0.111-0.371,0.229-0.752,0.346-1.135c0.119,0.404,0.248,0.777,0.381,1.135H21.847z M44.906,52.988   c-0.613,1.414-2.367,0.727-2.439,0.699c-6.643-2.529-8.992-4.297-10.541-5.834c-1.785-1.77-4.203-4.834-8.082-10.247   c-0.541-0.753-1.588-0.929-2.346-0.386c-0.752,0.54-0.926,1.59-0.385,2.345c0.861,1.202,1.637,2.266,2.363,3.25   c-0.01,0.029-0.033,0.049-0.043,0.079c-0.203,0.633-5.004,15.588-6.455,20.932c-1.168,4.293-1.637,21.383-1.656,22.184   c-0.008,0.436-0.275,1.447-2.613,1.447h-0.008c-1.869,0-2.637-1.289-2.867-1.793L9.736,60.852c0-0.002,0-0.002,0-0.004   c0,0,0,0,0-0.002l-0.018-4.428c-0.002-0.488-0.217-0.953-0.588-1.271c-3.316-2.826-1.4-7.648-1.373-7.734l6.398-12.621   c0.67-1.155,2.971-4.152,5.527-4.161c0,0,1.24-0.072,1.547-1.337c0.279-1.155-0.676-1.777-0.676-1.777   c-5.008-3.057-7.318-9.122-5.617-14.748C17,5.962,24.21,2.099,31.021,4.161c3.299,0.999,6.012,3.224,7.639,6.26   c0.611,1.146,1.041,2.353,1.287,3.59c-0.709,0.289-1.211,0.978-1.211,1.789c0,0.876,0.598,1.588,1.398,1.826   c-0.078,0.876-0.242,1.752-0.504,2.615c-0.055,0.176-0.137,0.336-0.195,0.509c-2.77,1.974-5.219,0.248-5.5,0.036   c-0.73-0.568-1.779-0.438-2.35,0.289c-0.572,0.729-0.449,1.785,0.281,2.359c0.936,0.736,2.729,1.601,4.852,1.601   c0.082,0,0.168-0.015,0.25-0.018c-2.047,2.327-4.898,3.896-8.086,4.297c-0.012,0.001-0.021,0.01-0.033,0.011   c0,0-0.76-0.136-1.285,0.809c-0.473,0.85,0.092,1.696,0.092,1.696c0.01,0.018,2.74,4.464,3.76,6.207   c3.246,5.539,4.877,8.319,12.02,12.709C43.796,50.965,45.345,51.975,44.906,52.988z M79.812,44.101l2.021,3.302   c1.346,2.646-0.137,5.488-0.309,5.488h-1.721L79.812,44.101z M79.235,56.25h0.607v2.918h-5.369   c0.162-0.002,0.328-0.008,0.494-0.023C76.866,58.955,78.427,57.793,79.235,56.25z M64.933,39.713v0.001c0,0-0.928-0.809-2.09-0.482   c-1.119,0.315-1.164,1.318-1.164,1.318s0.213,0.832,0.547,2.125c-0.096,0.083-2.947,3.597-4.545,5.179   c-1.393,1.381-5.383,5.049-9.396,6.188c0.512-1.428,0.129-2.859-0.752-4.063c5.746-3.375,7.5-6.406,10.494-11.604   c1.064-1.849,2.271-3.947,3.902-6.487c0.01-0.018,0.01-0.04,0.021-0.058c0,0,0.438-1.032-0.018-1.767   c-0.455-0.735-1.176-0.738-1.176-0.738c-0.014-0.001-0.023-0.01-0.035-0.011c-3.186-0.4-6.035-1.97-8.082-4.297   c0.082,0.003,0.168,0.018,0.248,0.018c2.121,0,3.916-0.865,4.852-1.601c0.725-0.571,0.848-1.613,0.285-2.343   c-0.563-0.73-1.621-0.863-2.352-0.307c-0.27,0.207-2.727,1.944-5.502-0.034c-0.059-0.172-0.141-0.333-0.195-0.509   c-0.26-0.863-0.424-1.739-0.504-2.615c0.801-0.238,1.398-0.95,1.398-1.826c0-0.811-0.502-1.5-1.211-1.789   c0.246-1.237,0.676-2.444,1.287-3.59c1.627-3.037,4.338-5.261,7.637-6.26c6.807-2.061,14.023,1.801,16.086,8.606   c1.701,5.627-0.609,11.693-5.615,14.75c0,0-1.041,0.853-0.689,1.938s1.408,1.17,1.408,1.17c6.115,0.571,6.672,7.354,6.688,7.527   l-0.008,15.437c0.109,1.109-0.705,2.104-1.813,2.213c-1.131,0.113-2.107-0.705-2.211-1.768l-0.824-11.915   c-0.066-0.925-0.895-1.609-1.793-1.561c-0.926,0.066-1.625,0.868-1.561,1.793l0.732,10.539h-0.602   C66.925,47.453,64.933,39.715,64.933,39.713z M74.423,59.168H68.86V56.25h0.793C70.558,57.998,72.38,59.162,74.423,59.168z    M79.771,86c0,0.002-0.049,0.412-0.383,0.752c-0.459,0.461-1.314,0.705-2.48,0.705c-0.908,0-1.58-0.215-2-0.637   c-0.633-0.637-0.635-1.641-0.635-1.711l-0.057-3.699h5.582L79.771,86z M87.161,78.051h-14.65c-0.01,0-0.018,0-0.027,0H61.876   V62.529h5.305h14.344h5.637V78.051z"></path><path d="M66.278,65.436c-0.771-0.508-1.816-0.291-2.324,0.484c-0.508,0.773-0.293,1.816,0.482,2.324l9.279,6.084   c0.279,0.184,0.6,0.275,0.92,0.275c0.328,0,0.656-0.098,0.941-0.289l9.566-6.469c0.77-0.52,0.971-1.563,0.451-2.332   c-0.521-0.768-1.563-0.973-2.334-0.451l-8.639,5.844L66.278,65.436z"></path><circle cx="74.636" cy="66.71" r="1.935"></circle><path d="M46.585,71.184v-6.861c0-0.93-0.752-1.68-1.679-1.68c-0.93,0-1.68,0.75-1.68,1.68v6.861c0,0.928,0.75,1.68,1.68,1.68   C45.833,72.863,46.585,72.111,46.585,71.184z"></path><path d="M37.935,68.059l3.756-4.381c0.604-0.705,0.523-1.764-0.18-2.367c-0.705-0.605-1.766-0.523-2.369,0.18l-3.758,4.381   c-0.604,0.705-0.523,1.766,0.182,2.369c0.318,0.271,0.707,0.404,1.094,0.404C37.132,68.645,37.603,68.447,37.935,68.059z"></path><path d="M53.64,68.135c0.402,0,0.803-0.143,1.125-0.434c0.689-0.621,0.744-1.684,0.121-2.371l-2.818-3.125   c-0.623-0.689-1.686-0.742-2.371-0.121c-0.689,0.621-0.744,1.684-0.123,2.373l2.818,3.123   C52.724,67.947,53.183,68.135,53.64,68.135z"></path></g></svg>