<svg height='28px' width='28px'  fill="#000000" xmlns="http://www.w3.org/2000/svg" xmlns:xlink="http://www.w3.org/1999/xlink" version="1.1" x="0px" y="0px" viewBox="0 0 100 100" enable-background="new 0 0 100 100" xml:space="preserve"><g><path d="M50.503,86.5c-0.427,0-0.854-0.137-1.212-0.408c-0.185-0.141-18.723-14.301-35.491-31.07   c-4.705-4.705-7.297-10.96-7.297-17.613S9.095,24.5,13.8,19.795c4.703-4.705,10.958-7.296,17.611-7.296s12.909,2.591,17.613,7.296   c0.515,0.515,1.008,1.054,1.479,1.614c0.47-0.561,0.962-1.1,1.478-1.614c4.707-4.704,10.963-7.296,17.615-7.296l0,0   c6.654,0,12.908,2.591,17.611,7.296c9.711,9.712,9.711,25.515,0,35.227c-16.768,16.77-35.307,30.93-35.492,31.07   C51.357,86.363,50.93,86.5,50.503,86.5z M31.411,16.499c-5.585,0-10.835,2.175-14.783,6.124c-3.949,3.949-6.125,9.2-6.125,14.785   s2.176,10.836,6.125,14.785c14.117,14.117,29.511,26.371,33.875,29.777c4.364-3.406,19.759-15.66,33.876-29.777   c8.15-8.152,8.15-21.418,0-29.57c-3.949-3.949-9.199-6.124-14.783-6.124s-10.836,2.175-14.787,6.124   c-0.98,0.98-1.867,2.066-2.641,3.228c-0.738,1.115-2.59,1.116-3.33,0.001c-0.773-1.163-1.663-2.249-2.642-3.229   C42.247,18.674,36.996,16.499,31.411,16.499z"></path></g></svg>