<svg height='300px' width='300px'  fill="#000000" xmlns="http://www.w3.org/2000/svg" xmlns:xlink="http://www.w3.org/1999/xlink" xmlns:sketch="http://www.bohemiancoding.com/sketch/ns" viewBox="0 0 44 42" version="1.1" x="0px" y="0px"><title>Groupssss</title><desc>Created with Sketch.</desc><g stroke="none" stroke-width="1" fill="none" fill-rule="evenodd" sketch:type="MSPage"><g sketch:type="MSLayerGroup" fill="#000000"><path d="M21.3281,35.1894 C20.5001,35.1894 19.8281,34.5174 19.8281,33.6894 L19.8281,11.4394 C19.8281,8.2834 18.9731,6.4834 18.2561,5.5284 C17.4651,4.4754 16.4221,3.8954 15.3191,3.8954 C13.0001,3.8954 10.6521,6.4294 10.6521,11.2724 L10.6521,33.6894 C10.6521,34.5174 9.9801,35.1894 9.1521,35.1894 C8.3241,35.1894 7.6521,34.5174 7.6521,33.6894 L7.6521,11.2724 C7.6521,4.4604 11.5101,0.8954 15.3191,0.8954 C18.9351,0.8954 22.8281,4.1954 22.8281,11.4394 L22.8281,33.6894 C22.8281,34.5174 22.1561,35.1894 21.3281,35.1894" sketch:type="MSShapeGroup"></path><path d="M41.2637,41.2734 C37.8337,41.2734 35.1327,40.2804 33.2347,38.3214 C29.1417,34.0984 29.3887,26.1744 29.6507,17.7854 C29.7157,15.7014 29.7837,13.5464 29.7837,11.4394 C29.7837,6.7694 27.9547,4.2504 26.2357,4.2504 C24.5587,4.2504 22.8607,6.6624 22.8607,11.2724 L22.8607,33.6894 C22.8607,34.5174 22.1887,35.1894 21.3607,35.1894 C20.5327,35.1894 19.8607,34.5174 19.8607,33.6894 L19.8607,11.2724 C19.8607,4.3864 23.1647,1.2504 26.2357,1.2504 C29.3897,1.2504 32.7837,4.4384 32.7837,11.4394 C32.7837,13.5924 32.7147,15.7714 32.6497,17.8784 C32.4087,25.6154 32.1797,32.9224 35.3887,36.2334 C36.7187,37.6064 38.6407,38.2734 41.2637,38.2734 C42.0917,38.2734 42.7637,38.9454 42.7637,39.7734 C42.7637,40.6014 42.0917,41.2734 41.2637,41.2734" sketch:type="MSShapeGroup"></path><path d="M9.1523,13.5234 C8.3243,13.5234 7.6523,12.8514 7.6523,12.0234 C7.6523,8.7284 6.9303,6.4384 5.5663,5.4004 C4.1963,4.3564 2.4493,4.8244 2.4333,4.8294 C1.6353,5.0484 0.8103,4.5894 0.5843,3.7984 C0.3573,3.0074 0.8033,2.1834 1.5923,1.9494 C1.7203,1.9134 4.7483,1.0444 7.3383,2.9784 C9.5373,4.6214 10.6523,7.6644 10.6523,12.0234 C10.6523,12.8514 9.9803,13.5234 9.1523,13.5234" sketch:type="MSShapeGroup"></path><path d="M22.2666,41.8994 C20.5896,41.8994 19.5356,41.6554 19.4966,41.6454 C18.6916,41.4454 18.2026,40.6314 18.4016,39.8284 C18.6016,39.0264 19.4106,38.5364 20.2126,38.7324 C20.7236,38.8524 32.7396,41.5014 39.6066,24.3684 C40.8406,21.2894 40.6656,18.5724 39.1266,16.9154 C38.1056,15.8144 36.6026,15.3704 35.2966,15.7844 C33.8566,16.2414 32.9086,17.6324 32.6286,19.7024 C32.5176,20.5244 31.7566,21.1134 30.9426,20.9884 C30.1216,20.8784 29.5446,20.1224 29.6566,19.3014 C30.0926,16.0644 31.8186,13.7404 34.3906,12.9244 C36.7976,12.1614 39.5176,12.9274 41.3266,14.8744 C43.6866,17.4174 44.0756,21.2844 42.3916,25.4844 C36.5846,39.9684 26.9736,41.8994 22.2666,41.8994" sketch:type="MSShapeGroup"></path></g></g></svg>