<svg height='300px' width='300px'  fill="#000000" xmlns="http://www.w3.org/2000/svg" xmlns:xlink="http://www.w3.org/1999/xlink" version="1.1" x="0px" y="0px" viewBox="0 0 100 100" enable-background="new 0 0 100 100" xml:space="preserve"><path fill="#000000" d="M50,11.562c-14.991,0-27.188,11.984-27.188,26.717c0,11.316,12.761,30.394,23.676,34.06l-0.899,0.901  c-0.088,0.088-0.157,0.19-0.205,0.308c-0.046,0.114-0.071,0.234-0.071,0.357c0,0.094,0.04,1.838,2.436,2.531  c-2.289,2.067-5.809,5.945-4.212,9.139c1.198,2.393,4.948,2.393,8.256,2.393c1.78,0,4.217,0,4.722,0.564  c0.028,0.031,0.073,0.083,0.053,0.273c-0.055,0.515,0.317,0.978,0.832,1.033c0.035,0.003,0.067,0.005,0.103,0.005  c0.472,0,0.879-0.355,0.93-0.837c0.073-0.668-0.108-1.265-0.522-1.727c-1.065-1.187-3.406-1.187-6.118-1.187  c-2.629,0-5.901,0-6.579-1.356c-1.196-2.39,3.197-6.524,5.121-8.031c4.29-0.132,4.353-2.688,4.353-2.8  c0-0.121-0.024-0.242-0.071-0.357c-0.055-0.135-0.143-0.252-0.249-0.352l-0.855-0.857c10.915-3.666,23.676-22.744,23.676-34.06  C77.188,23.547,64.991,11.562,50,11.562z M52.661,74.141c-0.293,0.33-1.053,0.701-2.661,0.701s-2.366-0.372-2.661-0.701l1.286-1.285  c0.463,0.065,0.925,0.111,1.375,0.111s0.912-0.046,1.375-0.111L52.661,74.141z M50,71.092c-8.939,0-25.312-19.29-25.312-32.812  c0-13.698,11.354-24.842,25.312-24.842s25.312,11.144,25.312,24.842C75.312,51.802,58.939,71.092,50,71.092z"></path><ellipse fill="#000000" cx="40.625" cy="45.312" rx="1.875" ry="2.812"></ellipse><ellipse fill="#000000" cx="59.375" cy="45.312" rx="1.875" ry="2.812"></ellipse><path fill="#000000" d="M50,50c-6.086,0-7.401,6.713-7.452,6.998c-0.106,0.564-0.029,1.17,0.208,1.637  c0.234,0.465,0.604,0.74,0.996,0.74h12.499c0.39,0,0.756-0.274,0.995-0.74c0.238-0.467,0.313-1.073,0.208-1.637  C57.403,56.713,56.088,50,50,50z"></path><path fill="#000000" d="M51.461,17.235c-0.465-0.026-0.963,0.355-0.998,0.873c-0.035,0.517,0.357,0.963,0.874,0.998  c5.27,0.352,10.082,2.75,13.55,6.753c0.185,0.214,0.446,0.324,0.708,0.324c0.218,0,0.436-0.075,0.613-0.229  c0.392-0.339,0.434-0.932,0.095-1.322C62.504,20.249,57.234,17.622,51.461,17.235z"></path><path fill="#000000" d="M70.744,32.847c-0.352-1.241-0.818-2.456-1.386-3.605c-0.229-0.465-0.789-0.657-1.254-0.427  c-0.465,0.229-0.655,0.791-0.427,1.254c0.517,1.051,0.943,2.157,1.266,3.291c0.117,0.412,0.492,0.681,0.901,0.681  c0.084,0,0.17-0.011,0.256-0.037C70.598,33.863,70.887,33.345,70.744,32.847z"></path></svg>