<svg height='300px' width='300px'  fill="#000000" xmlns="http://www.w3.org/2000/svg" xmlns:xlink="http://www.w3.org/1999/xlink" version="1.1" x="0px" y="0px" viewBox="0 0 100 100" style="enable-background:new 0 0 100 100;" xml:space="preserve"><g><path d="M47.7138672,66.0351562c0.828125,0,1.5-0.671875,1.5-1.5v-1.9590454   c3.3129272-0.6671753,5.8183594-3.6244507,5.8183594-7.1630249c0-2.5100098-1.2602539-4.727356-3.1744995-6.0432739   c1.4124146-1.2677002,2.3092651-3.1156616,2.3092651-5.1764526c0-3.1594238-2.0993042-5.8242188-4.953125-6.6456299v-2.0828857   c0-0.828125-0.671875-1.5-1.5-1.5s-1.5,0.671875-1.5,1.5V37.28125h-1.6640625v-1.8164062c0-0.828125-0.671875-1.5-1.5-1.5   s-1.5,0.671875-1.5,1.5V37.28125h-2.2490234c-0.828125,0-1.5,0.671875-1.5,1.5s0.671875,1.5,1.5,1.5h1.2607422v19.4375h-1.2607422   c-0.828125,0-1.5,0.671875-1.5,1.5s0.671875,1.5,1.5,1.5h2.2490234v1.8164062c0,0.828125,0.671875,1.5,1.5,1.5   s1.5-0.671875,1.5-1.5V62.71875h1.6640625v1.8164062C46.2138672,65.3632812,46.8857422,66.0351562,47.7138672,66.0351562z    M47.796875,51.1064453c2.3349609,0,4.2353516,1.9316406,4.2353516,4.3066406c0,2.3740234-1.9003906,4.3056641-4.2353516,4.3056641   h-4.2353516v-8.6123047h0.0693359h3.7333984H47.796875z M51.1669922,44.1933594   c0,2.1572266-1.7060547,3.9130859-3.8027344,3.9130859h-3.7333984h-0.0693359V40.28125h3.8027344   C49.4609375,40.28125,51.1669922,42.0361328,51.1669922,44.1933594z"></path><path d="M69.5732422,50c0-15.2792969-10.3876953-27.7099609-23.15625-27.7099609S23.2607422,34.7207031,23.2607422,50   s10.3876953,27.7099609,23.15625,27.7099609S69.5732422,65.2792969,69.5732422,50z M26.2607422,50   c0-13.625,9.0419922-24.7099609,20.15625-24.7099609S66.5732422,36.375,66.5732422,50s-9.0419922,24.7099609-20.15625,24.7099609   S26.2607422,63.625,26.2607422,50z"></path><path d="M73.8071899,75.4672852c1.9752808-2.307373,3.6706543-4.9804688,5.0285034-7.9423828   c0.1488037-0.1891479,0.2548218-0.4116821,0.2988281-0.6582642C81.2958984,61.8998413,82.5195312,56.1626587,82.5195312,50   c0-2.9260864-0.2800293-5.7542725-0.800415-8.4522095c-0.0084839-0.0830078-0.0221558-0.1636353-0.0435791-0.2420654   c-0.5758057-2.8955078-1.4364014-5.6339722-2.5410156-8.1723633c-0.0440063-0.246582-0.1500854-0.4692383-0.2988892-0.6583862   c-1.3581543-2.9627075-3.0541382-5.6364136-5.0300293-7.9441528c-0.1274414-0.3120117-0.3589478-0.5666504-0.6489868-0.7321777   c-4.8538208-5.3137817-11.2454834-8.5037231-18.3450928-8.5037231h-8.3945312   c-15.9560547,0-28.9365234,15.5683594-28.9365234,34.7050781s12.9804688,34.7050781,28.9365234,34.7050781   c0.1980591,0,0.3934937-0.0131836,0.5906372-0.0179443c0.059021,0.0070801,0.1169434,0.0179443,0.1779175,0.0179443h7.6259766   c7.0991211,0,13.4904785-3.1896362,18.3441772-8.5027466C73.4472046,76.036499,73.6796265,75.7807617,73.8071899,75.4672852z    M67.7626953,73.4033203c1.244873-1.631897,2.3609619-3.4065552,3.3305054-5.3007812h4.1195679   c-1.0349121,1.9387817-2.2337036,3.7161865-3.5750122,5.3007812H67.7626953z M71.6377563,26.5966797   c1.3413086,1.5845947,2.5401001,3.3619995,3.5750122,5.3007812h-4.1195679   c-0.9695435-1.894165-2.0856323-3.6688843-3.3305054-5.3007812H71.6377563z M75.3208008,48.5   c-0.0643921-1.8056641-0.2427368-3.5761108-0.5296021-5.3007812h4.1762695   C79.2491455,44.914978,79.4279785,46.6845703,79.4909058,48.5H75.3208008z M75.3208008,51.5h4.170105   c-0.0629883,1.8157959-0.2418213,3.5856934-0.5236206,5.3017578h-4.1762085   C75.078064,55.0767212,75.2564087,53.3060303,75.3208008,51.5z M76.630127,34.8974609   c0.6939087,1.6779785,1.2720337,3.4511108,1.7258301,5.3017578h-4.1859131   c-0.4509277-1.8336792-1.0192871-3.6072998-1.7050171-5.3017578H76.630127z M74.1697998,59.8017578h4.1859131   c-0.4537354,1.8502808-1.0317993,3.6231079-1.7255859,5.3007812h-4.1651001   C73.1506348,63.4083862,73.7188721,61.6350708,74.1697998,59.8017578z M68.6658325,23.5966797h-3.5006104   c-1.8779297-1.9210815-3.9577026-3.5661011-6.2027588-4.8670044C62.5279541,19.473938,65.8154297,21.1590576,68.6658325,23.5966797   z M20.4804688,50c0-17.4824219,11.6347656-31.7050781,25.9365234-31.7050781   c14.3007812,0,25.9355469,14.2226562,25.9355469,31.7050781S60.7177734,81.7050781,46.4169922,81.7050781   C32.1152344,81.7050781,20.4804688,67.4824219,20.4804688,50z M65.1652222,76.4033203h3.5006104   c-2.8504028,2.4376221-6.1378784,4.1227417-9.7033691,4.8670044   C61.2075195,79.9694214,63.2872925,78.3244019,65.1652222,76.4033203z"></path></g></svg>