<svg height='300px' width='300px'  fill="#000000" xmlns="http://www.w3.org/2000/svg" data-name="Layer 1" viewBox="0 0 100 100" x="0px" y="0px"><title>dictators_</title><path d="M41.39,54.91a1.57,1.57,0,1,0,0-3.15H37.22a1.57,1.57,0,1,0,0,3.15h4.17Z"></path><path d="M58.45,51.76a1.57,1.57,0,0,0,0,3.15h4.17a1.57,1.57,0,1,0,0-3.15H58.45Z"></path><path d="M52.45,74.76H47.4a1.57,1.57,0,1,0,0,3.15h5.05A1.58,1.58,0,0,0,52.45,74.76Z"></path><path d="M66.71,44.13l-13.34,1A1.94,1.94,0,0,0,51.77,47l0.43,16.3a1.77,1.77,0,0,1-.45,1.34,1.62,1.62,0,0,1-1.19.48H49.29a1.62,1.62,0,0,1-1.19-.48,1.79,1.79,0,0,1-.45-1.36L48.08,47a1.57,1.57,0,0,0-1.25-1.58,1.56,1.56,0,0,0-.7-0.23l-13-1a1.57,1.57,0,0,0-1.7,1.57v1.64a1.57,1.57,0,0,0,1.45,1.57l12,0.93L44.5,63.12a5.46,5.46,0,0,0,0,.58c-1.2.22-3.26,0.61-5.7,1.29A4.77,4.77,0,0,0,35,69.47a3.74,3.74,0,0,1-.95,2.31,1.58,1.58,0,0,0,1.83,2.51c0.07,0,7.3-3.65,14-3.65s13.94,3.61,14,3.65a1.57,1.57,0,0,0,1.83-2.51,3.75,3.75,0,0,1-.95-2.32A4.77,4.77,0,0,0,61,65c-2.45-.69-4.47-1.12-5.69-1.35,0-.17,0-0.33,0-0.5L55,49.82l12-.91a1.58,1.58,0,0,0,1.46-1.57V45.7A1.58,1.58,0,0,0,66.71,44.13Z"></path><path d="M80.24,49.37a5.16,5.16,0,0,0-3-1.52C77.87,42.06,78.86,33,79,30.61a12.56,12.56,0,0,0-3.42-9.79C71.09,16,62.44,13.53,49.92,13.53S28.76,16,24.24,20.82a12.56,12.56,0,0,0-3.42,9.79C21,33,22,42.06,22.63,47.84a5.16,5.16,0,0,0-3,1.52A4.83,4.83,0,0,0,18.27,53V53l0.59,7.07A5.07,5.07,0,0,0,24,65,1.56,1.56,0,0,0,24.45,65l0.44,7.86A12.69,12.69,0,0,0,36.76,84.94C38,87.13,39.78,89,42.81,89H57c3.07,0,4.86-1.83,6.07-4.06A12.58,12.58,0,0,0,74.95,73L75.39,65a1.55,1.55,0,0,0,.42,0c2.85,0,4.88-2,5.18-5L81.58,53V53A4.84,4.84,0,0,0,80.24,49.37ZM56.5,24.08l1.62-4.93a1.57,1.57,0,1,1,3,1l-1.62,4.93A1.57,1.57,0,0,1,56.5,24.08Zm-5.36.32,1.78-5.61a1.57,1.57,0,0,1,3,1l-1.78,5.61A1.57,1.57,0,1,1,51.14,24.4ZM77.85,59.78c-0.2,2.1-1.59,2.1-2,2.1l-0.24,0,0.24-4.34a1.58,1.58,0,1,0-3.16-.08s0,0,0,.06L71.8,72.72a9.31,9.31,0,0,1-7.35,8.66l0.14-.45a1.58,1.58,0,0,0-1.06-2,1.47,1.47,0,0,0-2,.86C60.38,83.79,59.2,85,57,85H42.81c-1.81,0-3.19-.7-4.53-5.18a1.52,1.52,0,0,0-2-1,1.63,1.63,0,0,0-1.06,2c0,0.15.09,0.32,0.14,0.47a9.4,9.4,0,0,1-7.45-8.68L27,57.53v0a1.52,1.52,0,0,0-.09-0.74,1.51,1.51,0,0,0-1.39-.84A1.56,1.56,0,0,0,24,57.49s0,0.09,0,.13l0.25,4.29-0.24,0c-0.45,0-1.83,0-2-2.08l-0.59-7a1.71,1.71,0,0,1,.48-1.24A2,2,0,0,1,23,51l0.2,1.8a1.57,1.57,0,0,0,2,1.34l1.25-.35a1.57,1.57,0,0,0,1.15-1.58l-0.32-7.9,3.45-3.08A1.57,1.57,0,0,0,31.23,40c0-.19,0-0.4,0-0.62-0.1-1.94-.27-5.18,1.29-6.84A4.59,4.59,0,0,1,36,31.29a33.32,33.32,0,0,1,7.45.74A30.9,30.9,0,0,0,56.4,32a33.3,33.3,0,0,1,7.45-.74,4.59,4.59,0,0,1,3.51,1.2c1.57,1.65,1.4,4.9,1.29,6.84,0,0.22,0,.43,0,0.62a1.57,1.57,0,0,0,.52,1.24l3.45,3.08-0.32,7.9a1.57,1.57,0,0,0,1.15,1.58l1.25,0.35a1.57,1.57,0,0,0,2-1.34l0.2-1.8a2,2,0,0,1,1.09.57,1.71,1.71,0,0,1,.48,1.24Z"></path></svg>