<svg height='300px' width='300px'  fill="#000000" xmlns="http://www.w3.org/2000/svg" xmlns:xlink="http://www.w3.org/1999/xlink" version="1.1" x="0px" y="0px" viewBox="0 0 100 100" enable-background="new 0 0 100 100" xml:space="preserve"><path d="M50,34H30.056L6.5,31.383v11.531l20.022,20.022c0.225,3.105,2.816,5.564,5.978,5.564h35c3.161,0,5.753-2.459,5.978-5.564  L93.5,42.914V31.383L69.944,34H50z M8.5,33.617l13,1.444v20.024l-13-13V33.617z M71.5,46.5h-43V45c0-2.206,1.794-4,4-4h35  c2.206,0,4,1.794,4,4V46.5z M33.5,48.5H34v3h-0.5V48.5z M67.5,66.5h-35c-2.206,0-4-1.794-4-4v-14h3v5H36v-5h35.5v14  C71.5,64.706,69.706,66.5,67.5,66.5z M91.5,42.086l-13,13V35.058l13-1.441V42.086z M76.5,35.28v21.806l-3,3V45c0-3.309-2.691-6-6-6  h-35c-3.309,0-6,2.691-6,6v15.086l-3-3V35.284l6.39,0.71L50,36h20L76.5,35.28z"></path></svg>