<svg height='300px' width='300px'  fill="#000000" xmlns="http://www.w3.org/2000/svg" xmlns:xlink="http://www.w3.org/1999/xlink" version="1.1" x="0px" y="0px" viewBox="0 0 100 100" enable-background="new 0 0 100 100" xml:space="preserve"><path d="M61.363,57.642l2.22-3.189v-7.506l1.467-0.863l1.849,0.539v-1.098l10.908-10.872l8.825-6.855l0.833-1.752l-1.305-1.767  l-8.699-1.006L73.5,24.928h-2.153l-12.461-7.267l-6.684,0.833l-5.52-1.188l-5.845-0.655l-5.14-10.095l-1.452,0.746v5.723H13.507  v10.451l3.205,9.268l0.944,16.895l1.812,4.043v4.367v2.488l-2.452,2.757l-0.554,1.458l1.646,1.686l2.295,0.904l0.741,1.681v26.162  H57.89l20.318-2.239l-0.63-3.474l-2.26-2.971l-3.596-2.082l-2.27-3.499l-3.316-1.817l-3.407-1.179l-2.555-2.32V64.649l-2.031-1.382  l0.711-3.26L61.363,57.642z M56.681,65.417l0.895,0.608v9.577c0,0.733,0.309,1.432,0.852,1.925l2.555,2.32  c0.26,0.236,0.565,0.417,0.898,0.532l3.199,1.107l2.55,1.396l1.912,2.949c0.224,0.344,0.524,0.63,0.879,0.835l3.145,1.821  l1.566,2.06l0.021,0.116l-17.405,1.919H23.745V69.021c0-0.361-0.075-0.719-0.221-1.049l-0.741-1.681  c-0.276-0.627-0.789-1.119-1.426-1.37l-1.71-0.674l1.765-1.984c0.423-0.476,0.657-1.091,0.657-1.728v-2.488v-4.367  c0-0.366-0.078-0.729-0.228-1.063l-1.616-3.604l-0.918-16.415c-0.013-0.24-0.06-0.478-0.139-0.705l-3.062-8.855v-7.414h18.139  c1.056,0,1.964-0.629,2.372-1.533l1.903,3.738c0.396,0.779,1.158,1.307,2.027,1.404l5.715,0.641l5.392,1.161  c0.18,0.039,0.363,0.059,0.547,0.059c0.107,0,0.215-0.007,0.321-0.02l5.812-0.724l11.702,6.824c0.397,0.232,0.85,0.354,1.31,0.354  H73.5c0.344,0,0.685-0.068,1.003-0.201l3.334-1.394l6.055,0.7l-7.68,5.966c-0.085,0.065-0.165,0.136-0.24,0.212l-10.716,10.68  c-0.069-0.005-0.138-0.008-0.206-0.008c-0.459,0-0.915,0.122-1.318,0.359l-1.467,0.863c-0.794,0.467-1.281,1.32-1.281,2.241v6.69  l-1.601,2.299l-2.312,2.181c-0.381,0.359-0.645,0.826-0.756,1.338l-0.711,3.26C55.377,63.75,55.804,64.82,56.681,65.417z"></path></svg>