<svg height='300px' width='300px'  fill="#000000" xmlns="http://www.w3.org/2000/svg" xmlns:xlink="http://www.w3.org/1999/xlink" version="1.1" x="0px" y="0px" viewBox="0 0 100 100" style="enable-background:new 0 0 100 100;" xml:space="preserve"><g><path d="M70.5,16.8h-41c-6.9,0-12.3,10.7-12.3,24.3v38c0,2.2,1.8,3.9,3.9,3.9h35.1c2.2,0,3.9-1.8,3.9-3.9V65.3h10.3   c6.9,0,12.3-10.7,12.3-24.3C82.8,27.5,77.4,16.8,70.5,16.8z M56.2,81H21.1c-1.1,0-1.9-0.9-1.9-1.9V49.7h3.6c0.6,0,1-0.4,1-1   s-0.4-1-1-1h-3.6v-6.6c0-12.1,4.7-22.3,10.3-22.3h36c-4.4,3.7-7.3,12.2-7.3,22.3v6.6h-3.8c-0.6,0-1,0.4-1,1s0.4,1,1,1h3.8v29.4   C58.1,80.2,57.3,81,56.2,81z M60.1,63.3v-8.9c1.3,3.9,3.1,7,5.3,8.9H60.1z M70.5,63.3c-5.6,0-10.3-10.2-10.3-22.3   c0-12.1,4.7-22.3,10.3-22.3S80.8,29,80.8,41.1C80.8,53.1,76.1,63.3,70.5,63.3z"></path><path d="M70.5,32.4c-2.7,0-4.7,3.7-4.7,8.6c0,4.9,2,8.6,4.7,8.6s4.7-3.7,4.7-8.6C75.2,36.1,73.2,32.4,70.5,32.4z M70.5,47.7   c-1.1,0-2.7-2.5-2.7-6.6c0-4.1,1.6-6.6,2.7-6.6s2.7,2.5,2.7,6.6C73.2,45.2,71.6,47.7,70.5,47.7z"></path><path d="M49.6,47.7h-4.1c-0.6,0-1,0.4-1,1s0.4,1,1,1h4.1c0.6,0,1-0.4,1-1S50.1,47.7,49.6,47.7z"></path><path d="M40.6,47.7h-4.1c-0.6,0-1,0.4-1,1s0.4,1,1,1h4.1c0.6,0,1-0.4,1-1S41.2,47.7,40.6,47.7z"></path><path d="M31.7,47.7h-4.1c-0.6,0-1,0.4-1,1s0.4,1,1,1h4.1c0.6,0,1-0.4,1-1S32.2,47.7,31.7,47.7z"></path></g></svg>