<svg height='300px' width='300px'  fill="#000000" xmlns="http://www.w3.org/2000/svg" xmlns:xlink="http://www.w3.org/1999/xlink" version="1.1" x="0px" y="0px" viewBox="0 0 50 50" enable-background="new 0 0 50 50" xml:space="preserve"><g><path d="M29.6,10.9l0,1.4c-3-0.9-6.3-0.9-9.2,0l0-1.4c0-3-2.4-5.4-5.4-5.4c-3,0-5.4,2.4-5.4,5.4V27c0,8.6,3.2,13.7,8.8,14.1   c0.7,1.2,2.6,3.4,6.6,3.4c4,0,5.9-2.2,6.6-3.4c5.6-0.4,8.8-5.5,8.8-14.1V10.9c0-3-2.4-5.4-5.4-5.4C32,5.5,29.6,7.9,29.6,10.9z    M21.4,40.9c1.7-0.4,2.8-1.2,3.6-2.1c0.8,0.9,1.9,1.7,3.6,2.1C27.9,41.5,26.7,42,25,42C23.3,42,22.1,41.5,21.4,40.9z M31.9,14.8   c0.1-0.2,0.2-0.4,0.2-0.7l0-3.2C32.1,9.3,33.4,8,35,8c1.6,0,2.9,1.3,2.9,2.9V27c0,5.3-1.2,11.6-7,11.6c-3.6,0-4.4-2.1-4.6-2.7   c0-0.1,0-0.1,0-0.2v-1.1c0,0,0,0,0,0c0,0,0,0,0,0L28,33c0.5-0.5,0.7-1.3,0.4-1.9c-0.3-0.7-0.9-1.1-1.6-1.1h-3.5   c-0.7,0-1.4,0.4-1.6,1.1c-0.3,0.7-0.1,1.4,0.4,1.9l1.7,1.7c0,0,0,0,0,0c0,0,0,0,0,0v1.2c-0.1,0.5-0.8,2.8-4.6,2.8   c-5.8,0-7-6.3-7-11.6V10.9C12.1,9.3,13.4,8,15,8c1.6,0,2.9,1.3,2.9,2.9l0,3.2c0,0,0,0,0,0c0,0.2,0.1,0.5,0.2,0.7   c0.3,0.5,0.9,0.7,1.4,0.5c0.1,0,0.1-0.1,0.2-0.1c3.3-1.5,7.2-1.5,10.6,0c0.1,0,0.1,0.1,0.2,0.1C31,15.5,31.6,15.3,31.9,14.8z"></path><path d="M15.5,29c-0.8,0-1.5,0.7-1.5,1.5c0,0.4,0.1,0.8,0.4,1.1c0.3,0.3,0.7,0.5,1.1,0.5c0,0,0,0,0,0c0,0,0,0,0,0   c0.8,0,1.5-0.7,1.5-1.5C17,29.7,16.3,29,15.5,29z"></path><path d="M18.5,34c-0.8,0-1.5,0.7-1.5,1.5c0,0.4,0.1,0.8,0.4,1.1c0.3,0.3,0.7,0.5,1.1,0.5c0,0,0,0,0,0c0,0,0,0,0,0   c0.8,0,1.5-0.7,1.5-1.5C20,34.7,19.3,34,18.5,34z"></path><path d="M34.5,32.1C34.5,32.1,34.5,32.1,34.5,32.1C34.5,32.1,34.5,32.1,34.5,32.1c0.4,0,0.8-0.2,1.1-0.5c0.3-0.3,0.4-0.7,0.4-1.1   c0-0.8-0.7-1.5-1.5-1.5c-0.8,0-1.5,0.7-1.5,1.5C33,31.4,33.7,32.1,34.5,32.1z"></path><path d="M30,35.6c0,0.8,0.7,1.5,1.5,1.5c0,0,0,0,0,0c0,0,0,0,0,0c0.4,0,0.8-0.2,1.1-0.5c0.3-0.3,0.4-0.7,0.4-1.1   c0-0.8-0.7-1.5-1.5-1.5C30.7,34,30,34.7,30,35.6z"></path></g></svg>