<svg height='300px' width='300px'  fill="#000000" xmlns="http://www.w3.org/2000/svg" xmlns:xlink="http://www.w3.org/1999/xlink" version="1.1" viewBox="0 0 96 96" x="0px" y="0px"><path d="M14.988 63.256c-0.512 0-1.024-0.196-1.416-0.584-0.78-0.772-0.78-2.048 0-2.828l42.428-42.416c0.776-0.78 2.048-0.78 2.828 0 0.776 0.772 0.776 2.048 0 2.828l-42.432 42.416c-0.388 0.392-0.896 0.584-1.408 0.584z" fill="#000000"></path><path d="M71.556 40.632c-0.516 0-1.024-0.196-1.416-0.584-0.78-0.772-0.78-2.048 0-2.828l16.968-16.96-2.828-2.832c-0.78-0.78-0.78-2.056 0-2.828 0.772-0.78 2.048-0.78 2.828 0l4.244 4.244c0.376 0.384 0.584 0.892 0.584 1.416s-0.212 1.040-0.584 1.416l-18.384 18.388c-0.388 0.372-0.904 0.568-1.412 0.568z" fill="#000000"></path><path d="M30.968 87.804c-2.312 0-4.484-0.904-6.12-2.536-3.368-3.376-3.376-8.868-0.004-12.252 3.272-3.264 8.972-3.264 12.248 0 3.372 3.384 3.372 8.876 0 12.252-1.636 1.636-3.808 2.536-6.124 2.536zM30.972 74.488c-1.244 0-2.416 0.484-3.296 1.364-1.816 1.816-1.812 4.772 0 6.588 1.76 1.752 4.828 1.752 6.588-0.004 1.816-1.812 1.816-4.768 0-6.584-0.88-0.88-2.048-1.364-3.292-1.364z" fill="#000000"></path><path d="M21.092 72.196c-0.512 0-1.024-0.196-1.416-0.584l-12.752-12.752c-3.996-3.996-3.776-11.22 0.464-15.452l31.784-31.78c4.116-4.12 12-4.684 15.832-0.844l22.204 22.204c0.78 0.78 0.78 2.048 0 2.828l-35.372 35.372c-0.78 0.78-2.048 0.78-2.828 0-4.656-4.644-11.652-4.416-16.504 0.432-0.392 0.38-0.9 0.576-1.412 0.576zM47.988 12.056c-2.216 0-4.504 0.916-5.984 2.4l-31.784 31.772c-2.688 2.696-2.908 7.368-0.464 9.804l11.412 11.416c5.776-4.68 13.6-4.864 19.18-0.428l32.624-32.612-20.78-20.788c-1.012-1.020-2.504-1.564-4.204-1.564z" fill="#000000"></path></svg>