<svg height='300px' width='300px'  fill="#000000" xmlns="http://www.w3.org/2000/svg" xmlns:xlink="http://www.w3.org/1999/xlink" viewBox="0 0 84 84" version="1.1" xml:space="preserve" style="" x="0px" y="0px" fill-rule="evenodd" clip-rule="evenodd" stroke-linejoin="round" stroke-miterlimit="1.41421"><g transform="matrix(-0.76072,0.76072,-0.648622,-0.648622,102.203,36.7549)"><path d="M69.873,28.886C70.397,28.897 70.918,28.943 71.436,29.036C72.485,29.225 73.51,29.589 74.471,30.116C75.778,30.832 76.963,31.846 77.946,33.084C78.9,34.286 79.661,35.697 80.175,37.225C80.638,38.601 80.899,40.066 80.947,41.544C80.994,42.983 80.841,44.43 80.49,45.811C80.14,47.19 79.594,48.5 78.882,49.673C77.626,51.745 75.86,53.371 73.844,54.305C72.981,54.704 72.076,54.976 71.156,55.113C70.73,55.177 70.302,55.208 69.873,55.218C52.694,55.346 35.514,55.346 18.335,55.218C17.906,55.208 17.478,55.177 17.052,55.113C16.132,54.976 15.227,54.704 14.364,54.305C12.348,53.371 10.582,51.745 9.326,49.673C8.614,48.5 8.068,47.19 7.718,45.811C7.367,44.43 7.214,42.983 7.261,41.544C7.309,40.066 7.57,38.601 8.033,37.225C8.547,35.697 9.308,34.286 10.262,33.084C11.245,31.846 12.43,30.832 13.737,30.116C14.698,29.589 15.723,29.225 16.772,29.036C17.29,28.943 17.811,28.897 18.335,28.886C35.514,28.758 52.694,28.758 69.873,28.886ZM18.483,31.156C18.047,31.159 17.612,31.191 17.18,31.262C16.311,31.405 15.459,31.694 14.659,32.118C13.57,32.696 12.58,33.522 11.756,34.536C10.956,35.52 10.315,36.677 9.876,37.936C9.482,39.065 9.254,40.272 9.202,41.491C9.15,42.683 9.264,43.885 9.542,45.034C9.799,46.096 10.197,47.11 10.714,48.032C11.763,49.9 13.301,51.371 15.075,52.192C15.788,52.522 16.536,52.747 17.296,52.86C17.649,52.913 18.004,52.939 18.36,52.947C35.522,53.075 52.686,53.075 69.848,52.947C70.204,52.939 70.559,52.913 70.912,52.86C71.672,52.747 72.42,52.522 73.133,52.192C74.802,51.419 76.264,50.072 77.304,48.357C77.893,47.386 78.344,46.304 78.634,45.162C78.924,44.019 79.05,42.822 79.012,41.63C78.972,40.408 78.757,39.196 78.374,38.059C77.949,36.794 77.318,35.627 76.528,34.631C75.715,33.606 74.734,32.767 73.652,32.174C72.857,31.738 72.01,31.437 71.143,31.281C70.714,31.205 70.282,31.166 69.848,31.157C52.727,31.03 35.605,31.156 18.483,31.156Z" style="" fill="black" fill-rule="nonzero"></path></g><g transform="matrix(-0.707107,0.707107,-0.707107,-0.707107,93.1022,35.348)"><path d="M26.396,16.224C26.505,16.232 26.611,16.252 26.714,16.291C26.988,16.396 27.209,16.617 27.314,16.891C27.353,16.994 27.373,17.1 27.381,17.209C27.407,18.175 27.383,19.141 27.383,20.107C27.379,20.236 27.36,20.36 27.314,20.481C27.209,20.754 26.988,20.975 26.714,21.08C26.611,21.119 26.505,21.139 26.396,21.148C23.897,21.213 21.397,21.149 18.898,21.149C18.77,21.146 18.645,21.126 18.525,21.08C18.251,20.975 18.031,20.754 17.926,20.481C17.886,20.378 17.866,20.271 17.858,20.162C17.832,19.196 17.856,18.23 17.856,17.264C17.859,17.154 17.873,17.047 17.907,16.942C17.998,16.663 18.207,16.431 18.474,16.312C18.592,16.26 18.715,16.234 18.843,16.224C21.36,16.158 23.879,16.158 26.396,16.224ZM19.94,18.306L19.94,19.066L25.3,19.066L25.3,18.306C23.513,18.306 21.726,18.306 19.94,18.306Z" style="" fill="black" fill-rule="nonzero"></path></g><g transform="matrix(-0.707107,0.707107,-0.707107,-0.707107,65.735,62.7152)"><path d="M26.396,16.224C26.505,16.232 26.611,16.252 26.714,16.291C26.988,16.396 27.209,16.617 27.314,16.891C27.353,16.994 27.373,17.1 27.381,17.209C27.407,18.175 27.383,19.141 27.383,20.107C27.38,20.217 27.366,20.324 27.332,20.429C27.241,20.708 27.033,20.94 26.765,21.059C26.647,21.111 26.524,21.137 26.396,21.148C23.897,21.213 21.397,21.149 18.898,21.149C18.77,21.146 18.645,21.126 18.525,21.08C18.251,20.975 18.031,20.754 17.926,20.481C17.886,20.378 17.866,20.271 17.858,20.162C17.832,19.196 17.856,18.23 17.856,17.264C17.86,17.135 17.879,17.011 17.926,16.891C18.031,16.617 18.251,16.396 18.525,16.291C18.628,16.252 18.734,16.232 18.843,16.224C21.36,16.158 23.879,16.158 26.396,16.224ZM19.94,18.306L19.94,19.066L25.3,19.066L25.3,18.306C23.513,18.306 21.726,18.306 19.94,18.306Z" style="" fill="black" fill-rule="nonzero"></path></g><g transform="matrix(-0.707107,0.707107,-0.707107,-0.707107,75.4836,17.7294)"><path d="M26.396,16.224C26.505,16.232 26.611,16.252 26.714,16.291C26.988,16.396 27.209,16.617 27.314,16.891C27.353,16.994 27.373,17.1 27.381,17.209C27.407,18.175 27.383,19.141 27.383,20.107C27.38,20.217 27.366,20.324 27.332,20.429C27.241,20.708 27.033,20.94 26.765,21.059C26.647,21.111 26.524,21.137 26.396,21.148C23.897,21.213 21.397,21.149 18.898,21.149C18.77,21.146 18.645,21.126 18.525,21.08C18.251,20.975 18.031,20.754 17.926,20.481C17.886,20.378 17.866,20.271 17.858,20.162C17.832,19.196 17.856,18.23 17.856,17.264C17.859,17.154 17.873,17.047 17.907,16.942C17.998,16.663 18.207,16.431 18.474,16.312C18.592,16.26 18.715,16.234 18.843,16.224C21.36,16.158 23.879,16.158 26.396,16.224ZM19.94,18.306L19.94,19.066L25.3,19.066L25.3,18.306C23.513,18.306 21.726,18.306 19.94,18.306Z" style="" fill="black" fill-rule="nonzero"></path></g><g transform="matrix(-0.707107,0.707107,-0.707107,-0.707107,48.1164,45.0966)"><path d="M26.396,16.224C26.505,16.232 26.611,16.252 26.714,16.291C26.988,16.396 27.209,16.617 27.314,16.891C27.353,16.994 27.373,17.1 27.381,17.209C27.407,18.175 27.383,19.141 27.383,20.107C27.379,20.236 27.36,20.36 27.314,20.481C27.209,20.754 26.988,20.975 26.714,21.08C26.611,21.119 26.505,21.139 26.396,21.148C23.897,21.213 21.397,21.149 18.898,21.149C18.788,21.146 18.681,21.132 18.576,21.098C18.297,21.007 18.066,20.799 17.946,20.531C17.894,20.413 17.868,20.29 17.858,20.162C17.832,19.196 17.856,18.23 17.856,17.264C17.86,17.135 17.879,17.011 17.926,16.891C18.031,16.617 18.251,16.396 18.525,16.291C18.628,16.252 18.734,16.232 18.843,16.224C21.36,16.158 23.879,16.158 26.396,16.224ZM19.94,18.306L19.94,19.066L25.3,19.066L25.3,18.306C23.513,18.306 21.726,18.306 19.94,18.306Z" style="" fill="black" fill-rule="nonzero"></path></g><g transform="matrix(-1.9461,1.9461,-1.9461,-1.9461,96.7701,11.3805)"><circle cx="14.404" cy="5.281" r="0.438" style="" fill="black"></circle></g><g transform="matrix(-1.9461,1.9461,-1.9461,-1.9461,69.3684,38.7822)"><circle cx="14.404" cy="5.281" r="0.438" style="" fill="black"></circle></g><g transform="matrix(-1.9461,1.9461,-1.9461,-1.9461,93.579,8.18947)"><circle cx="14.404" cy="5.281" r="0.438" style="" fill="black"></circle></g><g transform="matrix(-1.9461,1.9461,-1.9461,-1.9461,66.1773,35.5912)"><circle cx="14.404" cy="5.281" r="0.438" style="" fill="black"></circle></g><g transform="matrix(-1.9461,1.9461,-1.9461,-1.9461,93.2788,14.8719)"><circle cx="14.404" cy="5.281" r="0.438" style="" fill="black"></circle></g><g transform="matrix(-1.9461,1.9461,-1.9461,-1.9461,65.877,42.2736)"><circle cx="14.404" cy="5.281" r="0.438" style="" fill="black"></circle></g><g transform="matrix(-1.9461,1.9461,-1.9461,-1.9461,93.2788,14.8719)"><circle cx="14.404" cy="5.281" r="0.438" style="" fill="black"></circle></g><g transform="matrix(-1.9461,1.9461,-1.9461,-1.9461,65.877,42.2736)"><circle cx="14.404" cy="5.281" r="0.438" style="" fill="black"></circle></g><g transform="matrix(-1.9461,1.9461,-1.9461,-1.9461,90.0877,11.6808)"><circle cx="14.404" cy="5.281" r="0.438" style="" fill="black"></circle></g><g transform="matrix(-1.9461,1.9461,-1.9461,-1.9461,62.686,39.0825)"><circle cx="14.404" cy="5.281" r="0.438" style="" fill="black"></circle></g></svg>