<svg height='300px' width='300px'  fill="#000000" xmlns="http://www.w3.org/2000/svg" xmlns:xlink="http://www.w3.org/1999/xlink" version="1.1" x="0px" y="0px" viewBox="131.993 0 100 100" enable-background="new 131.993 0 100 100" xml:space="preserve"><path fill="#000000" d="M223.32,57.778c-1.254-4.936-4.482-13.747-12.035-17.292c-0.352-0.165-0.764-0.113-1.062,0.135  c-0.297,0.247-0.426,0.644-0.33,1.019c0.514,2.006,0.832,5.896,1.033,7.705c-2.125-1.187-5.895-3.688-6.928-4.26  c1.013-2.206,4.732-8.474,5.711-12.486c1.908,1.688,3.783,3.666,5.166,5.847c0.188,0.293,0.508,0.464,0.846,0.464  c0.072,0,0.146-0.008,0.221-0.024c0.412-0.094,0.721-0.436,0.771-0.855c1.842-15.22-6.277-24.267-11.365-27.213  c-2.359-1.364-6.051-0.66-8.367,1.459c-1.104-0.666-2.551-0.919-4.154-0.701c-2.537,0.35-4.898,1.747-6.256,3.602  c-1.17-1.233-3.049-1.775-5.211-1.473c-2.601,0.362-5.016,1.793-6.409,3.691c-1.667-1.714-4.649-2.059-7.708-0.842  c-2.767,1.1-4.684,3.103-5.305,5.363c-0.153-0.095-0.306-0.189-0.454-0.275c-2.788-1.615-7.232-0.614-9.705,2.187  c-0.896,1.016-2.422,3.354-1.475,6.714c-7.614,7.286-11.644,17.444-11.644,29.438c0,3.846,1.011,7.116,2.703,8.749  c0.438,0.423,1.161,1.226,2.075,2.241c2.158,2.397,5.421,6.021,9.4,9.649c2.68,2.443,6.188,4.26,10.428,5.398  c0.006,0.002,0.012,0.001,0.018,0.002c1.747,1.546,4.32,2.455,6.796,2.455c0.001,0,0.001,0,0.002,0c2.043,0,3.703-0.632,4.674-1.78  c0.036-0.044,0.069-0.104,0.105-0.151c0.03,0.038,0.049,0.083,0.081,0.121c1.002,1.178,2.778,1.854,4.874,1.854l0,0  c2.338,0,4.781-0.831,6.102-2.432c1.047,0.896,2.596,1.103,3.758,1.103c3.203,0,6.775-1.407,8.213-3.782  c0.697,0.46,1.645,0.707,2.799,0.708c2.992,0,7.346-1.67,8.406-4.354c0.609,0.283,1.346,0.447,2.217,0.447  c2.18,0,4.572-0.885,5.82-2.153c0.529-0.539,0.834-1.145,0.926-1.77c0.082,0.002,0.166,0.006,0.246,0.006  c2.256,0,4.17-0.796,5.186-2.176C225.092,71.938,225.014,64.457,223.32,57.778z M204.346,12.547  c0.486,0.282,11.33,6.757,10.604,22.592c-1.6-1.974-3.482-3.73-5.299-5.209c-0.008-0.005-0.012-0.011-0.02-0.016  c-1.525-1.241-2.99-2.276-4.207-3.075c0.777-1.207,0.994-2.501,0.535-3.541c-0.988-2.243-4.01-5.685-6.678-8.721l-0.824-0.941  C200.143,12.191,202.787,11.646,204.346,12.547z M193.1,13.556c1.49-0.206,2.738,0.121,3.414,0.897l1.266,1.444  c2.443,2.783,5.486,6.247,6.35,8.208c0.189,0.43,0.014,1.31-0.82,2.227c-1.436,1.578-4.352,2.794-8.352,1.711  c0.234-0.805,0.219-1.595-0.082-2.276c-1.018-2.31-4.135-5.859-6.885-8.99c-0.018-0.019-0.033-0.037-0.049-0.055  C188.898,15.131,190.941,13.853,193.1,13.556z M181.635,15.685c1.555-0.219,2.852,0.124,3.557,0.935  c0.414,0.476,0.85,0.971,1.295,1.479c2.525,2.873,5.666,6.449,6.559,8.477c0.199,0.452,0.018,1.372-0.85,2.327  c-1.467,1.615-4.434,2.863-8.496,1.81c0.23-0.815,0.211-1.615-0.094-2.305c-1.053-2.388-4.279-6.062-7.127-9.303  c-0.053-0.06-0.101-0.115-0.153-0.175C177.324,17.299,179.419,15.993,181.635,15.685z M167.981,18.411  c1.937-0.769,4.433-0.924,5.641,0.465c0.433,0.498,0.888,1.016,1.354,1.546c2.616,2.978,5.871,6.685,6.8,8.79  c0.219,0.497,0.027,1.449-0.891,2.458c-1.595,1.751-4.88,3.085-9.382,1.733c-2.106-4.684-5.094-8.092-7.789-10.23  C163.885,20.854,166.067,19.172,167.981,18.411z M161.437,83.344c-2.879-1.034-5.316-2.439-7.25-4.203  c-3.906-3.562-7.129-7.141-9.262-9.509c-0.978-1.086-1.684-1.871-2.173-2.343c-1.29-1.244-2.092-4.045-2.092-7.31  c0-11.131,3.615-20.581,10.458-27.441c0.322,0.604,0.72,1.232,1.216,1.886c0.333,0.439,0.962,0.525,1.401,0.192  c0.439-0.334,0.525-0.961,0.192-1.401c-2.315-3.053-2.546-5.917-0.649-8.065c1.819-2.061,5.253-2.909,7.203-1.779  c0.367,0.212,6.047,3.608,9.388,11.279c0.006,0.012,0.01,0.024,0.016,0.036c1.584,3.653,2.641,8.269,2.337,13.976  c-5.455-6.881-14.069-11.43-14.471-11.64c-0.033-0.017-0.068-0.016-0.102-0.029c-0.067-0.026-0.133-0.047-0.203-0.059  c-0.061-0.01-0.118-0.012-0.178-0.011c-0.067,0.001-0.131,0.007-0.197,0.022c-0.064,0.015-0.123,0.037-0.184,0.064  c-0.035,0.016-0.074,0.017-0.107,0.037c-7.4,4.369-10.729,17.218-10.729,24.946c0,0.011,0.006,0.02,0.006,0.03  c0.002,0.066,0.024,0.131,0.04,0.197c0.016,0.064,0.023,0.13,0.051,0.189c0.005,0.01,0.004,0.021,0.009,0.03  c1.143,2.285,5.293,6.281,7.968,8.067l0.438,0.296c0.966,0.656,2.168,1.474,3.878,2.113c0.116,0.043,0.233,0.063,0.351,0.063  c0.404,0,0.786-0.248,0.937-0.649c0.194-0.518-0.069-1.094-0.586-1.287c-1.485-0.556-2.532-1.267-3.454-1.895l-0.453-0.306  c-2.562-1.71-6.132-5.257-7.176-7.099c0.063-7.105,2.96-18.48,9.287-22.666c0.526,0.296,1.422,0.816,2.539,1.532  c-5.309,5.239-8.459,11.841-9.362,19.65c-0.003,0.021,0.007,0.041,0.005,0.062c-0.004,0.07,0.007,0.137,0.018,0.206  c0.01,0.062,0.017,0.12,0.037,0.178c0.021,0.059,0.053,0.109,0.085,0.164c0.035,0.06,0.068,0.117,0.114,0.168  c0.016,0.017,0.021,0.037,0.036,0.053c0.274,0.268,6.44,6.22,12.644,7.357c-0.277,1.378-0.582,2.698-0.879,3.976  c-0.742,3.198-1.442,6.219-1.442,9.196C161.139,82.229,161.251,82.802,161.437,83.344z M173.229,85.403  c-0.576,0.681-1.723,1.071-3.146,1.071c-0.001,0-0.001,0-0.002,0c-3.282,0-6.941-1.993-6.941-4.852c0-2.749,0.645-5.527,1.391-8.744  c0.382-1.644,0.772-3.363,1.108-5.178c0-0.002,0.001-0.003,0.001-0.005c0-0.001,0-0.001,0-0.001  c0.675-3.651,1.11-7.718,0.677-12.536c5.064,4.268,6.936,11.528,7.613,15.739c0.048,0.298,0.087,0.589,0.128,0.881l0.039,0.484  c0.201,2.438,0.373,4.567,0.348,6.7C174.317,82.382,173.746,84.792,173.229,85.403z M184.908,83.465  c-0.006,0.058-0.012,0.121-0.018,0.178c-0.203,1.8-2.738,2.875-5.074,2.875l0,0c-1.486,0-2.738-0.43-3.352-1.149  c-0.393-0.463-0.527-1.044-0.408-1.775c0.264-1.628,0.371-3.14,0.388-4.642c0.071-2.316-0.055-4.888-0.401-7.412l-0.021-0.265  c-0.059-0.711,0.135-1.296,0.59-1.79c0.805-0.873,2.429-1.416,4.237-1.416c2.118,0,3.913,0.76,4.001,1.693  c0.139,1.455,0.23,3.139,0.279,4.86C185.148,77.704,185.055,80.936,184.908,83.465z M196.65,79.973  c-0.043,0.578-0.086,1.07-0.127,1.42c-0.252,2.173-3.822,3.797-6.848,3.796c-1.188,0-2.145-0.263-2.559-0.702  c-0.172-0.184-0.242-0.391-0.225-0.672c0.002-0.054,0.006-0.117,0.008-0.171c0.25-2.38,0.324-5.855,0.227-9.204  c-0.018-2.161-0.088-4.242-0.236-5.944c-0.014-0.146,0.115-0.321,0.227-0.442c0.961-1.05,3.938-1.937,6.5-1.937  c1.752,0,2.98,0.421,3.082,1.049C196.887,70.885,196.809,76.448,196.65,79.973z M197.422,63.695  c-0.311,0.337-0.506,0.668-0.631,0.978c-0.826-0.357-1.885-0.557-3.174-0.557c-2.719,0-6.438,0.906-7.975,2.586  c-0.156,0.17-0.271,0.337-0.373,0.501c-1.18-0.769-2.85-1.135-4.421-1.135c-2.241,0-4.249,0.687-5.472,1.838  c-1.174-5.107-3.824-12.082-9.794-15.735c-0.33-0.203-0.747-0.196-1.07,0.017c-0.324,0.213-0.496,0.593-0.441,0.976  c0.729,5.152,0.404,9.477-0.246,13.319c-4.806-0.875-9.867-5.226-11.241-6.476c0.942-7.27,3.978-13.399,9.02-18.248  c3.395,2.348,7.815,5.939,10.533,10.224c0.187,0.293,0.508,0.464,0.845,0.464c0.073,0,0.147-0.008,0.221-0.024  c0.412-0.094,0.722-0.436,0.772-0.855c0.755-6.235-0.01-11.525-1.556-15.88c0.922,0.182,1.804,0.277,2.63,0.277  c3.334,0,5.858-1.347,7.314-2.947c0.148-0.162,0.281-0.329,0.406-0.496c1.369,0.396,2.65,0.582,3.824,0.582  c3.227,0,5.67-1.305,7.08-2.855c0.121-0.132,0.227-0.269,0.332-0.405c0.979,0.295,1.912,0.481,2.791,0.562  c-0.066,5.112-3.73,11.569-4.342,13.34c-0.979,2.838,1.195,4.772,1.242,4.809c0.072,0.071,8.812,6.805,9.893,12.651  C201.34,61.439,198.715,62.291,197.422,63.695z M207.434,77.551c-0.031,0.363-0.059,0.721-0.094,1.095  c-0.15,1.621-3.693,3.469-6.652,3.469c-0.887-0.001-1.57-0.187-1.879-0.51c-0.096-0.102-0.223-0.282-0.201-0.671  c0.016-0.267,0.027-0.553,0.041-0.851c0.246-3.3,0.463-9.451,0.045-13.121c0-0.004-0.002-0.007-0.002-0.011  c-0.025-0.471-0.053-0.92-0.086-1.323c-0.016-0.203,0.146-0.426,0.287-0.578c0.941-1.022,3.566-1.883,5.785-1.914  c0.016,0.001,0.029,0.009,0.045,0.009c0.023,0,0.045-0.001,0.068-0.002c0.016-0.001,0.027-0.01,0.043-0.012  c1.195,0.004,2.49,0.271,2.572,1.015c0.061,0.546,0.107,1.072,0.152,1.595c0.105,3.787,0.014,8.669-0.141,11.284  C207.406,77.205,207.416,77.38,207.434,77.551z M201.969,44.5c-0.281,0.531-0.625,1.25,0.299,1.858  c0.597,0.393,5.086,3.318,8.67,5.455c0.156,2.25-0.479,6.646-0.479,6.646l-1.008,0.549c-0.369,0.257-0.707,0.541-0.992,0.851  c-0.494,0.538-0.801,1.129-0.951,1.74c-0.535-0.225-1.174-0.373-1.906-0.435c-1.033-6.575-10.182-13.72-10.539-14.071  c-0.051-0.046-1.25-1.15-0.717-2.697c0.666-1.93,4.385-8.567,4.453-13.983c2.234-0.18,4.027-1.009,5.281-2.065  c1.111,0.722,2.48,1.675,3.904,2.808c-0.949,4.495-5.633,12.479-5.797,12.939L201.969,44.5z M216.104,75.785  c-0.006,0.04-0.008,0.08-0.006,0.121c0.004,0.28-0.211,0.561-0.395,0.746c-0.857,0.872-2.787,1.555-4.393,1.555  c-0.799,0-1.443-0.176-1.721-0.471c-0.053-0.056-0.107-0.137-0.143-0.255c0.342-4.068,0.459-7.683,0.111-11.845  c-0.035-1.178-0.086-2.262-0.162-3.15c-0.035-0.42,0.145-0.849,0.535-1.275c0.848-0.923,2.48-1.593,3.879-1.593  c0.725,0,1.619,0.175,1.773,1.008C216.377,64.891,216.492,72.038,216.104,75.785z M221.877,72.929  c-0.637,0.867-2.023,1.366-3.65,1.354c0.234-4.106,0.051-10.109-0.676-14.022c-0.309-1.654-1.707-2.642-3.74-2.642  c-0.301,0-0.604,0.027-0.908,0.067c0.406-4.227,0.541-8.866-0.561-14.304c5.471,3.693,7.988,10.749,9.039,14.889  C223.281,65.758,222.715,71.793,221.877,72.929z"></path></svg>